<svg width="16" height="22" viewBox="0 0 16 22" fill="none" xmlns="http://www.w3.org/2000/svg">
<path d="M14.6231 8.83764L13.6952 16.6405C13.6415 17.0923 13.4224 17.5089 13.0791 17.8114C12.7355 18.1138 12.2921 18.2809 11.8326 18.2811H11.0272V16.0367C11.0272 15.5018 10.8124 14.9889 10.43 14.611C10.0477 14.2329 9.52936 14.0212 8.98909 14.0218H7.00046C6.46089 14.0218 5.9433 14.2342 5.56163 14.6121C5.17996 14.9897 4.96567 15.5022 4.96567 16.0366V18.281H4.15702C3.69743 18.2808 3.25402 18.1137 2.91053 17.8114C2.56723 17.5088 2.34807 17.0923 2.29445 16.6404L1.36648 8.83758C1.32371 8.47092 1.39237 8.09989 1.56367 7.77212C1.73474 7.44414 2.00083 7.1743 2.32747 6.9967L4.08398 6.03542H4.08422C4.3792 7.1931 5.1821 8.15919 6.27258 8.66913C7.36306 9.17884 8.62665 9.17884 9.71713 8.66913C10.8076 8.15918 11.6105 7.1931 11.9055 6.03542L13.662 6.9967H13.6622C13.9896 7.17362 14.2561 7.44347 14.4272 7.77148C14.5985 8.09947 14.667 8.47073 14.6233 8.83758L14.6231 8.83764ZM4.45866 3.12504C4.69978 2.69474 5.01765 2.31112 5.39681 1.99301L4.60135 0.828005C4.47444 0.629339 4.25551 0.506199 4.01809 0.500017H0.660705C0.288736 0.525194 0 0.831432 0 1.20062C0 1.5698 0.288742 1.87579 0.660705 1.90098H3.64335L4.45866 3.12504ZM15.3292 0.5H11.972C11.7352 0.500458 11.5142 0.617186 11.382 0.811733L10.5865 1.98975L10.5868 1.98952C10.968 2.30881 11.2879 2.69334 11.5314 3.125L12.3567 1.90761H15.3393C15.7113 1.88243 16 1.57619 16 1.20701C16 0.837825 15.7113 0.531839 15.3393 0.50641L15.3292 0.5ZM8.98962 14.6784H7.00099C6.63712 14.6784 6.28803 14.8214 6.03071 15.0762C5.7734 15.3309 5.62892 15.6765 5.62892 16.0368V20.1416C5.62892 20.5018 5.7734 20.8474 6.03071 21.1022C6.28801 21.357 6.63709 21.5 7.00099 21.5H8.98962C9.35349 21.5 9.70258 21.357 9.9599 21.1022C10.2172 20.8475 10.3617 20.5019 10.3617 20.1416V16.0368C10.3617 15.6766 10.2172 15.3309 9.9599 15.0762C9.7026 14.8214 9.35353 14.6784 8.98962 14.6784ZM4.61828 5.05152C4.61828 4.1646 4.97406 3.31435 5.60726 2.68717C6.24069 2.06028 7.09977 1.70778 7.99537 1.70778C8.89096 1.70778 9.74999 2.06026 10.3835 2.68717C11.0167 3.31429 11.3725 4.1646 11.3725 5.05152C11.3725 5.93821 11.0167 6.78869 10.3835 7.41588C9.75005 8.04277 8.89096 8.39503 7.99537 8.39503C7.10001 8.39411 6.2414 8.04164 5.60845 7.41476C4.97526 6.78811 4.61899 5.93804 4.61834 5.05158L4.61828 5.05152ZM6.4277 5.05152C6.4277 5.46305 6.59276 5.85788 6.88682 6.14897C7.18088 6.43988 7.57966 6.60353 7.99529 6.60353C8.41093 6.60353 8.80975 6.43988 9.10377 6.14897C9.39783 5.85783 9.56289 5.46302 9.56289 5.05152C9.56289 4.63977 9.39783 4.24516 9.10377 3.95407C8.80971 3.66298 8.41093 3.49952 7.99529 3.49952C7.57918 3.4986 7.17995 3.66179 6.88587 3.95316C6.59158 4.24429 6.42675 4.63958 6.42768 5.05155L6.4277 5.05152Z" fill="#94A196"/>
</svg>
