<svg width="17" height="22" viewBox="0 0 17 22" fill="none" xmlns="http://www.w3.org/2000/svg">
<path d="M15.1231 8.83764L14.1952 16.6405C14.1415 17.0923 13.9224 17.5089 13.5791 17.8114C13.2355 18.1138 12.7921 18.2809 12.3326 18.2811H11.5272V16.0367C11.5272 15.5018 11.3124 14.9889 10.93 14.611C10.5477 14.2329 10.0294 14.0212 9.48909 14.0218H7.50046C6.96089 14.0218 6.4433 14.2342 6.06163 14.6121C5.67996 14.9897 5.46567 15.5022 5.46567 16.0366V18.281H4.65702C4.19743 18.2808 3.75402 18.1137 3.41053 17.8114C3.06723 17.5088 2.84807 17.0923 2.79445 16.6404L1.86648 8.83758C1.82371 8.47092 1.89237 8.09989 2.06367 7.77212C2.23474 7.44414 2.50083 7.1743 2.82747 6.9967L4.58398 6.03542H4.58422C4.8792 7.1931 5.6821 8.15919 6.77258 8.66913C7.86306 9.17884 9.12665 9.17884 10.2171 8.66913C11.3076 8.15918 12.1105 7.1931 12.4055 6.03542L14.162 6.9967H14.1622C14.4896 7.17362 14.7561 7.44347 14.9272 7.77148C15.0985 8.09947 15.167 8.47073 15.1233 8.83758L15.1231 8.83764ZM4.95866 3.12504C5.19978 2.69474 5.51765 2.31112 5.89681 1.99301L5.10135 0.828005C4.97444 0.629339 4.75551 0.506199 4.51809 0.500017H1.16071C0.788736 0.525194 0.5 0.831432 0.5 1.20062C0.5 1.5698 0.788742 1.87579 1.16071 1.90098H4.14335L4.95866 3.12504ZM15.8292 0.5H12.472C12.2352 0.500458 12.0142 0.617186 11.882 0.811733L11.0865 1.98975L11.0868 1.98952C11.468 2.30881 11.7879 2.69334 12.0314 3.125L12.8567 1.90761H15.8393C16.2113 1.88243 16.5 1.57619 16.5 1.20701C16.5 0.837825 16.2113 0.531839 15.8393 0.50641L15.8292 0.5ZM9.48962 14.6784H7.50099C7.13712 14.6784 6.78803 14.8214 6.53071 15.0762C6.2734 15.3309 6.12892 15.6765 6.12892 16.0368V20.1416C6.12892 20.5018 6.2734 20.8474 6.53071 21.1022C6.78801 21.357 7.13709 21.5 7.50099 21.5H9.48962C9.85349 21.5 10.2026 21.357 10.4599 21.1022C10.7172 20.8475 10.8617 20.5019 10.8617 20.1416V16.0368C10.8617 15.6766 10.7172 15.3309 10.4599 15.0762C10.2026 14.8214 9.85353 14.6784 9.48962 14.6784ZM5.11828 5.05152C5.11828 4.1646 5.47406 3.31435 6.10726 2.68717C6.74069 2.06028 7.59977 1.70778 8.49537 1.70778C9.39096 1.70778 10.25 2.06026 10.8835 2.68717C11.5167 3.31429 11.8725 4.1646 11.8725 5.05152C11.8725 5.93821 11.5167 6.78869 10.8835 7.41588C10.25 8.04277 9.39096 8.39503 8.49537 8.39503C7.60001 8.39411 6.7414 8.04164 6.10845 7.41476C5.47526 6.78811 5.11899 5.93804 5.11834 5.05158L5.11828 5.05152ZM6.9277 5.05152C6.9277 5.46305 7.09276 5.85788 7.38682 6.14897C7.68088 6.43988 8.07966 6.60353 8.49529 6.60353C8.91093 6.60353 9.30975 6.43988 9.60377 6.14897C9.89783 5.85783 10.0629 5.46302 10.0629 5.05152C10.0629 4.63977 9.89783 4.24516 9.60377 3.95407C9.30971 3.66298 8.91093 3.49952 8.49529 3.49952C8.07918 3.4986 7.67995 3.66179 7.38587 3.95316C7.09158 4.24429 6.92675 4.63958 6.92768 5.05155L6.9277 5.05152Z" fill="#94A196"/>
</svg>
