<svg width="19" height="18" viewBox="0 0 19 18" fill="none" xmlns="http://www.w3.org/2000/svg">
<path d="M18.5 3.63389V7.67269C18.4992 7.82351 18.4421 7.96784 18.3413 8.0732C18.2402 8.17878 18.1041 8.2368 17.9628 8.23429H16.7141V3.06916H17.9628C18.1045 3.06685 18.2412 3.1253 18.3423 3.23129C18.4431 3.33749 18.5 3.48244 18.5 3.63389L18.5 3.63389ZM0.5 3.63389V7.67269C0.5 7.98292 0.735421 8.2343 1.02599 8.2343H2.33671L2.33652 3.06917H1.02599C0.735049 3.07085 0.500005 3.32326 0.500005 3.63389H0.5ZM4.30245 17.0991C4.30245 17.3381 4.39132 17.5672 4.54964 17.7361C4.70777 17.9051 4.92239 18 5.14624 18H6.63411C6.85776 18 7.07238 17.9051 7.23071 17.7361C7.38883 17.5672 7.47771 17.3381 7.47771 17.0991V15.8709H4.30244L4.30245 17.0991ZM12.1548 17.0991C12.1548 17.3381 12.2437 17.5672 12.402 17.7361C12.5602 17.9051 12.7748 18 12.9986 18H14.4751C14.699 18 14.9136 17.9051 15.0717 17.7361C15.23 17.5672 15.3189 17.3381 15.3189 17.0991V15.8709H12.1548L12.1548 17.0991ZM16.1515 0.882947V10.3032H2.89861V0.882947C2.89861 0.648757 2.98572 0.424203 3.1409 0.258487C3.29588 0.0930065 3.50619 0 3.72555 0H15.3246C15.5439 0 15.7542 0.0930065 15.9092 0.258487C16.0644 0.424177 16.1515 0.64873 16.1515 0.882947H16.1515ZM14.4639 2.3484C14.4623 2.04718 14.2342 1.80336 13.9521 1.80191H5.09824C4.81612 1.80338 4.58797 2.0472 4.58641 2.3484V7.95808C4.58798 8.25889 4.81673 8.50168 5.09824 8.50168H13.9521C14.2336 8.50168 14.4624 8.2589 14.4639 7.95808V2.3484ZM2.89901 10.9037H16.1519V14.3962C16.1511 14.6298 16.0636 14.8537 15.9086 15.0185C15.7537 15.1834 15.5437 15.276 15.325 15.276H3.72595C3.5072 15.276 3.29728 15.1834 3.1423 15.0185C2.98732 14.8537 2.89982 14.6297 2.89903 14.3962L2.89901 10.9037ZM11.9864 13.0868C11.9864 13.3656 12.0902 13.6329 12.2748 13.83C12.4594 14.0271 12.7097 14.1379 12.9708 14.1379C13.2318 14.1379 13.4823 14.0271 13.6669 13.83C13.8515 13.6329 13.9551 13.3656 13.9551 13.0868C13.9551 12.8082 13.8515 12.5407 13.6669 12.3436C13.4823 12.1465 13.2317 12.0359 12.9708 12.0359C12.7097 12.0359 12.4594 12.1465 12.2748 12.3436C12.0902 12.5407 11.9864 12.8082 11.9864 13.0868ZM5.09578 13.0868C5.09578 13.3656 5.19936 13.6329 5.38397 13.83C5.56858 14.0271 5.81911 14.1379 6.08001 14.1379C6.34114 14.1379 6.59149 14.0271 6.77606 13.83C6.96067 13.6329 7.06445 13.3656 7.06445 13.0868C7.06445 12.8082 6.96067 12.5407 6.77606 12.3436C6.59145 12.1465 6.34111 12.0359 6.08001 12.0359C5.81909 12.0359 5.56854 12.1465 5.38397 12.3436C5.19936 12.5407 5.09578 12.8082 5.09578 13.0868Z" fill="#94A196"/>
</svg>
