<svg width="18" height="18" viewBox="0 0 18 18" fill="none" xmlns="http://www.w3.org/2000/svg">
<path d="M18 3.63389V7.67269C17.9992 7.82351 17.9421 7.96784 17.8413 8.0732C17.7402 8.17878 17.6041 8.2368 17.4628 8.23429H16.2141V3.06916H17.4628C17.6045 3.06685 17.7412 3.1253 17.8423 3.23129C17.9431 3.33749 18 3.48244 18 3.63389L18 3.63389ZM0 3.63389V7.67269C0 7.98292 0.235421 8.2343 0.525987 8.2343H1.83671L1.83652 3.06917H0.525992C0.235049 3.07085 4.59807e-06 3.32326 4.59807e-06 3.63389H0ZM3.80245 17.0991C3.80245 17.3381 3.89132 17.5672 4.04964 17.7361C4.20777 17.9051 4.42239 18 4.64624 18H6.13411C6.35776 18 6.57238 17.9051 6.73071 17.7361C6.88883 17.5672 6.97771 17.3381 6.97771 17.0991V15.8709H3.80244L3.80245 17.0991ZM11.6548 17.0991C11.6548 17.3381 11.7437 17.5672 11.902 17.7361C12.0602 17.9051 12.2748 18 12.4986 18H13.9751C14.199 18 14.4136 17.9051 14.5717 17.7361C14.73 17.5672 14.8189 17.3381 14.8189 17.0991V15.8709H11.6548L11.6548 17.0991ZM15.6515 0.882947V10.3032H2.39861V0.882947C2.39861 0.648757 2.48572 0.424203 2.6409 0.258487C2.79588 0.0930065 3.00619 0 3.22555 0H14.8246C15.0439 0 15.2542 0.0930065 15.4092 0.258487C15.5644 0.424177 15.6515 0.64873 15.6515 0.882947H15.6515ZM13.9639 2.3484C13.9623 2.04718 13.7342 1.80336 13.4521 1.80191H4.59824C4.31612 1.80338 4.08797 2.0472 4.08641 2.3484V7.95808C4.08798 8.25889 4.31673 8.50168 4.59824 8.50168H13.4521C13.7336 8.50168 13.9624 8.2589 13.9639 7.95808V2.3484ZM2.39901 10.9037H15.6519V14.3962C15.6511 14.6298 15.5636 14.8537 15.4086 15.0185C15.2537 15.1834 15.0437 15.276 14.825 15.276H3.22595C3.0072 15.276 2.79728 15.1834 2.6423 15.0185C2.48732 14.8537 2.39982 14.6297 2.39903 14.3962L2.39901 10.9037ZM11.4864 13.0868C11.4864 13.3656 11.5902 13.6329 11.7748 13.83C11.9594 14.0271 12.2097 14.1379 12.4708 14.1379C12.7318 14.1379 12.9823 14.0271 13.1669 13.83C13.3515 13.6329 13.4551 13.3656 13.4551 13.0868C13.4551 12.8082 13.3515 12.5407 13.1669 12.3436C12.9823 12.1465 12.7317 12.0359 12.4708 12.0359C12.2097 12.0359 11.9594 12.1465 11.7748 12.3436C11.5902 12.5407 11.4864 12.8082 11.4864 13.0868ZM4.59578 13.0868C4.59578 13.3656 4.69936 13.6329 4.88397 13.83C5.06858 14.0271 5.31911 14.1379 5.58001 14.1379C5.84114 14.1379 6.09149 14.0271 6.27606 13.83C6.46067 13.6329 6.56445 13.3656 6.56445 13.0868C6.56445 12.8082 6.46067 12.5407 6.27606 12.3436C6.09145 12.1465 5.84111 12.0359 5.58001 12.0359C5.31909 12.0359 5.06854 12.1465 4.88397 12.3436C4.69936 12.5407 4.59578 12.8082 4.59578 13.0868Z" fill="#94A196"/>
</svg>
