<svg width="21" height="18" viewBox="0 0 21 18" fill="none" xmlns="http://www.w3.org/2000/svg">
<path d="M2.12821 15.1749H6.1908V16.4857C6.19145 16.7528 6.0866 17.0095 5.8987 17.1996C5.71057 17.3896 5.4551 17.4976 5.18764 17.5H3.14382C2.87439 17.5 2.61608 17.3931 2.42579 17.203C2.23527 17.0128 2.12824 16.7548 2.12824 16.4857L2.12821 15.1749ZM14.8002 16.4857C14.7995 16.7546 14.9057 17.0125 15.0958 17.2028C15.2856 17.3931 15.5437 17.5 15.8127 17.5H17.8535C18.1227 17.5 18.381 17.3931 18.5715 17.203C18.762 17.0127 18.8691 16.7548 18.8691 16.4857V15.1748H14.8065L14.8002 16.4857ZM20.5 9.87245V13.8299C20.5009 14.0215 20.425 14.2052 20.2894 14.3407C20.154 14.4761 19.9699 14.5518 19.7782 14.551H1.22175C1.03015 14.5518 0.845948 14.4761 0.710579 14.3407C0.574992 14.2052 0.499131 14.0215 0.500008 13.8299V9.67588C0.500008 9.26071 0.587201 8.85036 0.756136 8.4711L1.66864 6.4081L3.83434 0.936933C3.93527 0.678735 4.18181 0.506309 4.45951 0.5H16.4373C16.715 0.506313 16.9615 0.678735 17.0624 0.936933L19.2499 6.39567L20.2531 8.66789V8.66768C20.4185 9.04779 20.5027 9.45819 20.4999 9.87245L20.5 9.87245ZM3.87153 5.14715H17.0374C17.1195 5.14715 17.1965 5.10622 17.2423 5.03786C17.288 4.96972 17.2968 4.88308 17.2654 4.8071L16.1248 1.90136C16.0884 1.80535 15.9962 1.742 15.8936 1.74222H5.02463C4.92196 1.742 4.82997 1.80535 4.79335 1.90136L3.64022 4.8071C3.61057 4.88351 3.62038 4.96994 3.66638 5.03786C3.71259 5.10579 3.78932 5.14671 3.8715 5.14715H3.87153ZM6.26217 11.4109V11.4112C6.26304 10.9871 6.09519 10.5802 5.79546 10.28C5.49573 9.97953 5.08876 9.81058 4.66432 9.80993C4.23968 9.80949 3.8325 9.97735 3.53189 10.2769C3.23151 10.5765 3.06256 10.9829 3.06213 11.407C3.06191 11.8309 3.23041 12.2375 3.53036 12.5375C3.83052 12.8375 4.23773 13.006 4.66212 13.006C5.0861 13.006 5.49243 12.838 5.79237 12.5391C6.09254 12.2399 6.26147 11.8343 6.26213 11.4111L6.26217 11.4109ZM17.9341 11.4109V11.4112C17.935 10.9869 17.7669 10.58 17.467 10.2795C17.167 9.9793 16.7598 9.81035 16.3352 9.80992C15.9106 9.8097 15.5032 9.9782 15.2028 10.278C14.9024 10.578 14.7339 10.9849 14.7341 11.409C14.7346 11.8333 14.9035 12.2399 15.2043 12.5393C15.5049 12.8388 15.9125 13.0067 16.3374 13.006C16.761 13.006 17.1671 12.838 17.4666 12.5388C17.7661 12.2397 17.9341 11.8341 17.9341 11.4112L17.9341 11.4109Z" fill="#94A196"/>
</svg>
