<svg width="20" height="18" viewBox="0 0 20 18" fill="none" xmlns="http://www.w3.org/2000/svg">
<path d="M1.62821 15.1749H5.6908V16.4857C5.69145 16.7528 5.5866 17.0095 5.3987 17.1996C5.21057 17.3896 4.9551 17.4976 4.68764 17.5H2.64382C2.37439 17.5 2.11608 17.3931 1.92579 17.203C1.73527 17.0128 1.62824 16.7548 1.62824 16.4857L1.62821 15.1749ZM14.3002 16.4857C14.2995 16.7546 14.4057 17.0125 14.5958 17.2028C14.7856 17.3931 15.0437 17.5 15.3127 17.5H17.3535C17.6227 17.5 17.881 17.3931 18.0715 17.203C18.262 17.0127 18.3691 16.7548 18.3691 16.4857V15.1748H14.3065L14.3002 16.4857ZM20 9.87245V13.8299C20.0009 14.0215 19.925 14.2052 19.7894 14.3407C19.654 14.4761 19.4699 14.5518 19.2782 14.551H0.721754C0.530146 14.5518 0.345948 14.4761 0.210579 14.3407C0.0749917 14.2052 -0.000868617 14.0215 7.50537e-06 13.8299V9.67588C7.50537e-06 9.26071 0.0872011 8.85036 0.256136 8.4711L1.16864 6.4081L3.33434 0.936933C3.43527 0.678735 3.68181 0.506309 3.95951 0.5H15.9373C16.215 0.506313 16.4615 0.678735 16.5624 0.936933L18.7499 6.39567L19.7531 8.66789V8.66768C19.9185 9.04779 20.0027 9.45819 19.9999 9.87245L20 9.87245ZM3.37153 5.14715H16.5374C16.6195 5.14715 16.6965 5.10622 16.7423 5.03786C16.788 4.96972 16.7968 4.88308 16.7654 4.8071L15.6248 1.90136C15.5884 1.80535 15.4962 1.742 15.3936 1.74222H4.52463C4.42196 1.742 4.32997 1.80535 4.29335 1.90136L3.14022 4.8071C3.11057 4.88351 3.12038 4.96994 3.16638 5.03786C3.21259 5.10579 3.28932 5.14671 3.3715 5.14715H3.37153ZM5.76217 11.4109V11.4112C5.76304 10.9871 5.59519 10.5802 5.29546 10.28C4.99573 9.97953 4.58876 9.81058 4.16432 9.80993C3.73968 9.80949 3.3325 9.97735 3.03189 10.2769C2.73151 10.5765 2.56256 10.9829 2.56213 11.407C2.56191 11.8309 2.73041 12.2375 3.03036 12.5375C3.33052 12.8375 3.73773 13.006 4.16212 13.006C4.5861 13.006 4.99243 12.838 5.29237 12.5391C5.59254 12.2399 5.76147 11.8343 5.76213 11.4111L5.76217 11.4109ZM17.4341 11.4109V11.4112C17.435 10.9869 17.2669 10.58 16.967 10.2795C16.667 9.9793 16.2598 9.81035 15.8352 9.80992C15.4106 9.8097 15.0032 9.9782 14.7028 10.278C14.4024 10.578 14.2339 10.9849 14.2341 11.409C14.2346 11.8333 14.4035 12.2399 14.7043 12.5393C15.0049 12.8388 15.4125 13.0067 15.8374 13.006C16.261 13.006 16.6671 12.838 16.9666 12.5388C17.2661 12.2397 17.4341 11.8341 17.4341 11.4112L17.4341 11.4109Z" fill="#94A196"/>
</svg>
