<svg width="19" height="18" viewBox="0 0 19 18" fill="none" xmlns="http://www.w3.org/2000/svg">
<path d="M3.91061 2C3.97061 2.89 4.12061 3.76 4.36061 4.59L3.16061 5.79C2.75061 4.59 2.49061 3.32 2.40061 2H3.91061ZM13.7706 14.02C14.6206 14.26 15.4906 14.41 16.3706 14.47V15.96C15.0506 15.87 13.7806 15.61 12.5706 15.21L13.7706 14.02ZM4.87061 0H1.37061C0.820605 0 0.370605 0.45 0.370605 1C0.370605 10.39 7.98061 18 17.3706 18C17.9206 18 18.3706 17.55 18.3706 17V13.51C18.3706 12.96 17.9206 12.51 17.3706 12.51C16.1306 12.51 14.9206 12.31 13.8006 11.94C13.7006 11.9 13.5906 11.89 13.4906 11.89C13.2306 11.89 12.9806 11.99 12.7806 12.18L10.5806 14.38C7.75061 12.93 5.43061 10.62 3.99061 7.79L6.19061 5.59C6.47061 5.31 6.55061 4.92 6.44061 4.57C6.07061 3.45 5.87061 2.25 5.87061 1C5.87061 0.45 5.42061 0 4.87061 0Z" fill="#94A196"/>
</svg>
