<svg width="19" height="18" viewBox="0 0 19 18" fill="none" xmlns="http://www.w3.org/2000/svg">
<path d="M5.40064 11.1848H1.99309C1.56281 11.1848 1.15007 11.3559 0.845784 11.6602C0.541509 11.9644 0.370605 12.3772 0.370605 12.8075V16.3773C0.370605 16.8076 0.541514 17.2203 0.845784 17.5246C1.15006 17.8289 1.56282 17.9998 1.99309 17.9998H5.40064C5.83092 17.9998 6.24366 17.8288 6.54794 17.5246C6.85222 17.2203 7.02312 16.8075 7.02312 16.3773V12.8075C7.02312 12.3772 6.85221 11.9644 6.54794 11.6602C6.24367 11.3559 5.83091 11.1848 5.40064 11.1848ZM5.94145 16.3771V16.3773C5.94145 16.5206 5.88448 16.6582 5.783 16.7596C5.68151 16.8611 5.54399 16.9181 5.40063 16.9181H1.99308C1.69447 16.9181 1.45227 16.6759 1.45227 16.3773V12.8075C1.45227 12.5089 1.69448 12.2667 1.99308 12.2667H5.40063C5.54399 12.2667 5.68151 12.3236 5.783 12.4251C5.88449 12.5264 5.94145 12.6641 5.94145 12.8075V16.3771ZM5.40064 0H1.99309C1.56281 0 1.15007 0.170908 0.845784 0.475178C0.541509 0.779453 0.370605 1.19221 0.370605 1.62249V8.32921C0.370605 8.75949 0.541514 9.17223 0.845784 9.47651C1.15006 9.78079 1.56282 9.95169 1.99309 9.95169H5.40064C5.83092 9.95169 6.24366 9.78079 6.54794 9.47651C6.85222 9.17224 7.02312 8.75948 7.02312 8.32921V1.62249C7.02312 1.1922 6.85221 0.779463 6.54794 0.475178C6.24367 0.170903 5.83091 0 5.40064 0ZM5.94145 8.32931C5.94145 8.47268 5.88448 8.6102 5.783 8.71168C5.68151 8.81317 5.54399 8.87014 5.40063 8.87014H1.99308C1.69447 8.87014 1.45227 8.62793 1.45227 8.32932V1.6226C1.45227 1.32399 1.69448 1.08179 1.99308 1.08179H5.40063C5.54399 1.08179 5.68151 1.13876 5.783 1.24024C5.88449 1.34173 5.94145 1.47925 5.94145 1.62261V8.32931ZM16.7481 7.1935H9.87914C9.44885 7.1935 9.03611 7.36441 8.73183 7.66868C8.42755 7.97295 8.25665 8.38571 8.25665 8.81599V16.3775C8.25665 16.8078 8.42756 17.2205 8.73183 17.5248C9.0361 17.829 9.44886 18 9.87914 18H16.7481C17.1784 18 17.5911 17.829 17.8954 17.5248C18.1997 17.2205 18.3706 16.8077 18.3706 16.3775V8.81599C18.3706 8.3857 18.1997 7.97296 17.8954 7.66868C17.5912 7.3644 17.1784 7.1935 16.7481 7.1935ZM17.2889 16.3776C17.2889 16.5209 17.232 16.6585 17.1305 16.7599C17.029 16.8614 16.8915 16.9184 16.7481 16.9184H9.87913C9.58051 16.9184 9.33831 16.6762 9.33831 16.3776V8.8161C9.33831 8.51749 9.58052 8.27528 9.87913 8.27528H16.7481C16.8915 8.27528 17.029 8.33225 17.1305 8.43374C17.232 8.53504 17.2889 8.67274 17.2889 8.81611V16.3776ZM16.7481 0H9.87914C9.44885 0 9.03611 0.170908 8.73183 0.475178C8.42755 0.779453 8.25665 1.19221 8.25665 1.62249V4.33777C8.25665 4.76806 8.42756 5.1808 8.73183 5.48508C9.0361 5.78936 9.44886 5.96026 9.87914 5.96026H16.7481C17.1784 5.96026 17.5911 5.78935 17.8954 5.48508C18.1997 5.18081 18.3706 4.76805 18.3706 4.33777V1.62249C18.3706 1.1922 18.1997 0.779463 17.8954 0.475178C17.5912 0.170903 17.1784 0 16.7481 0ZM17.2889 4.33773C17.2889 4.4811 17.232 4.61862 17.1305 4.72011C17.029 4.82159 16.8915 4.87856 16.7481 4.87856H9.87913C9.58051 4.87856 9.33831 4.63635 9.33831 4.33774V1.62246C9.33831 1.32384 9.58052 1.08164 9.87913 1.08164H16.7481C16.8915 1.08164 17.029 1.13861 17.1305 1.2401C17.232 1.34158 17.2889 1.4791 17.2889 1.62247V4.33773Z" fill="#373C38"/>
</svg>
