<svg width="24" height="30" viewBox="0 0 24 30" fill="none" xmlns="http://www.w3.org/2000/svg">
<path d="M23.2998 12.3827C23.208 12.3941 23.1009 12.375 22.9966 12.3827C22.7419 12.3995 22.4723 12.4771 22.2532 12.4578C22.181 12.4518 22.1114 12.4178 22.0408 12.4127C21.8574 12.3997 21.6897 12.4743 21.5102 12.4578C21.4495 12.4127 21.4779 12.2792 21.4187 12.2318C21.2504 12.1579 21.0837 12.1965 20.9338 12.1418C20.815 12.0979 20.68 11.9705 20.4332 12.0209C20.4111 11.6912 20.147 11.7479 19.8418 11.7803C19.7447 11.7903 19.5987 11.8219 19.5231 11.8103C19.4616 11.8005 19.3582 11.7105 19.3107 11.7052C19.1545 11.6859 18.9859 11.8026 18.8255 11.7803C18.6684 11.7579 18.6025 11.6228 18.416 11.5994C17.9901 11.547 17.5186 11.691 17.1722 11.8254C16.9522 11.9109 16.7042 11.9721 16.4893 12.0823C16.2824 12.1876 16.0367 12.3757 15.8074 12.488C15.8475 12.3997 15.9285 12.3457 16.0193 12.2771C16.0984 12.2181 16.1548 12.1328 16.2465 12.0511C16.3371 11.9719 16.4766 11.8949 16.5953 11.8105C16.7664 11.6896 16.9955 11.5859 16.8991 11.3587C16.9867 11.2978 17.1068 11.2255 17.2479 11.1478C17.4335 11.045 17.6768 10.9746 17.5967 10.8011C17.7401 10.7421 17.806 10.6074 17.9152 10.5154C17.8936 10.314 18.1201 10.2094 18.097 10.018C18.0763 9.84642 17.8428 9.82805 17.7331 9.70179C17.8817 9.56577 18.0482 9.39045 18.067 9.17444C18.314 9.09236 18.4582 8.76405 18.1881 8.60245C18.2726 8.31413 18.6791 8.14021 18.5676 7.80375C18.6705 7.69773 18.9627 7.28478 18.9164 7.08083C18.8887 6.95783 18.6433 6.89087 18.5371 6.8246C18.3953 6.73694 18.2884 6.62999 18.1424 6.59859C18.2249 6.43932 18.3341 6.30632 18.461 6.19192C18.4477 6.02498 18.6644 5.88361 18.6582 5.69457C18.6537 5.56459 18.5911 5.58389 18.5371 5.46856C18.5885 5.34045 18.809 5.06561 18.6125 4.97191C18.7355 4.81914 18.8232 4.56198 18.7795 4.29386C18.663 4.19319 18.5147 4.12483 18.3094 4.1132C18.3085 3.95579 18.4395 3.7793 18.4302 3.57097C18.427 3.49075 18.3494 3.40588 18.3394 3.31473C18.3296 3.22917 18.3748 3.15407 18.3846 3.07408C18.3976 2.9741 18.393 2.85505 18.4149 2.74274C18.437 2.63183 18.4849 2.51465 18.4756 2.45652C18.4563 2.33654 18.3348 2.25957 18.3087 2.17075C18.3308 2.07682 18.325 1.99497 18.3387 1.9001C18.349 1.82477 18.4032 1.73408 18.3995 1.67386C18.3951 1.60155 18.3296 1.55923 18.3234 1.49296C18.3124 1.3674 18.4349 1.18 18.4598 1.01072C18.5171 0.633581 18.6072 0.301311 18.7189 0H18.1578C18.1078 0.112304 17.9278 0.224608 17.7783 0.377371C17.6575 0.50014 17.5553 0.721963 17.4444 0.783808C17.4028 0.807757 17.3273 0.785901 17.2475 0.813803C17.1159 0.860539 17.0796 1.00888 16.8836 0.934709C16.7718 0.953077 16.5655 1.26814 16.4284 1.26535C16.348 1.26442 16.2689 1.13537 16.1858 1.13026C15.9704 1.1177 15.8053 1.36696 15.5792 1.38626C15.447 1.39788 15.3329 1.34882 15.2305 1.37115C15.0717 1.40579 14.887 1.58087 14.7453 1.68737C14.6873 1.73178 14.6368 1.78712 14.5937 1.7927C14.4503 1.81269 14.3397 1.70225 14.2444 1.70225C14.0761 1.70155 13.959 1.81293 13.8503 1.89849C13.7699 1.96058 13.7092 2.07079 13.6072 2.1245C13.5003 2.18007 13.3753 2.13752 13.2277 2.1996C13.0566 2.27238 12.9062 2.71323 12.6819 2.75718C12.5742 2.77741 12.3665 2.71184 12.2421 2.66627C12.1164 2.62023 11.9637 2.5056 11.8626 2.51583C11.7208 2.53094 11.6815 2.74742 11.5749 2.8474C11.3208 2.89181 11.2752 3.14176 11.1353 3.29871C10.8314 3.245 10.7688 3.45171 10.6342 3.66027C10.5509 3.79002 10.468 3.89698 10.407 3.9923C10.2585 3.97626 10.1884 3.87023 10.0582 3.90139C9.95136 3.92697 9.93273 4.07811 9.83099 4.20273C9.79071 4.25203 9.70689 4.31573 9.67918 4.36805C9.61632 4.48663 9.62005 4.65079 9.52738 4.70008C9.35486 4.73333 9.18327 4.67334 8.99677 4.65497C8.82751 4.638 8.59095 4.56825 8.46569 4.62498C8.39724 4.65497 8.42029 4.69776 8.35953 4.7903C8.32111 4.84866 8.2501 4.8833 8.22332 4.92562C8.13345 5.06466 8.13997 5.19952 7.96535 5.25695C7.8806 5.48854 7.88689 5.81197 7.81354 6.05565C7.74788 6.11843 7.64591 6.10773 7.5863 6.17609C7.39935 6.3914 7.49993 6.98848 7.46524 7.3061C7.35954 7.35632 7.24801 7.40073 7.1621 7.47141C7.0536 7.69044 7.08597 7.96272 7.0557 8.21011C7.04405 8.30311 6.98492 8.38984 6.97956 8.48122C6.97584 8.55028 7.02403 8.61934 7.0252 8.69212C7.02613 8.75303 6.98119 8.82279 6.97956 8.88813C6.97444 9.12507 7.14604 9.38711 7.0252 9.58081C6.90669 9.55849 6.8387 9.4341 6.78259 9.3548C6.65337 9.17274 6.52253 8.99092 6.41845 8.78281C6.36816 8.6819 6.35396 8.55844 6.29738 8.46659C6.23941 8.37358 6.10624 8.34103 6.03965 8.2557C5.98749 8.18943 5.96887 8.09735 5.91788 8.02969C5.77702 7.84344 5.59913 7.69812 5.43267 7.53303C5.09833 7.5693 4.93605 7.26959 4.68971 7.18635C4.60496 7.15729 4.51323 7.16496 4.43174 7.14124C4.29157 7.09962 4.21102 7.00964 4.09786 6.915C3.89856 6.88338 3.73 6.81061 3.55188 6.7341C3.40497 6.67132 3.26317 6.55484 3.11207 6.53879C3.06201 6.53275 2.99915 6.56088 2.94513 6.55391C2.84758 6.54089 2.69252 6.46997 2.58099 6.41858C2.24828 6.26187 2.01266 6.10748 1.76216 5.83032C1.65203 5.70941 1.41432 5.41156 1.26158 5.42365C0.913039 5.45132 1.21246 6.10026 1.24622 6.35788C1.28533 6.65666 1.21991 6.90058 1.17078 7.09586C1.15169 7.1712 1.14098 7.26351 1.12538 7.30676C1.08999 7.40139 1.0085 7.43487 0.988942 7.51719C0.941213 7.71715 1.03877 7.87154 0.973808 8.05988C0.889994 8.12196 0.784984 8.16382 0.700705 8.2259C0.591278 8.36448 0.712113 8.56188 0.715838 8.72256C0.718399 8.8509 0.636446 8.95391 0.715838 9.05412C0.675094 9.13969 0.600357 9.15248 0.5794 9.26502C0.547969 9.43197 0.633183 9.66099 0.640166 9.82236C0.58778 9.94164 0.434581 9.91699 0.382195 10.0486C0.327714 10.1853 0.477657 10.3878 0.473228 10.6204C0.472297 10.6803 0.427826 10.7459 0.427826 10.8013C0.427128 10.9403 0.530035 11.0742 0.549364 11.1628C0.383124 11.5488 0.706986 11.9785 0.807103 12.3375C0.661354 12.4182 0.535161 12.5479 0.367293 12.6839C0.241798 12.7867 0.0224744 12.8616 0.00338337 12.9853C-0.0357315 13.2359 0.278818 13.3564 0.200356 13.6035C0.325619 13.7451 0.43691 13.9005 0.56473 14.0402C0.480677 14.3248 0.764033 14.4769 0.913507 14.6268C0.931435 14.7912 1.13469 14.8989 1.27742 14.9884C1.27975 15.0612 1.21222 15.0644 1.23202 15.1544C1.49301 15.4265 1.87859 15.5495 2.20266 15.742C2.36145 15.8357 2.49928 15.9636 2.64247 16.0733C2.78938 16.1854 2.95981 16.2847 3.03734 16.4498C2.4276 16.6104 1.77124 16.9915 1.38382 17.444C1.34913 17.4847 1.33353 17.5533 1.29279 17.61C1.21968 17.7123 0.986157 17.8814 0.944011 18.0016C0.903034 18.1178 0.958446 18.2713 0.944011 18.3931C1.05577 18.4992 1.17731 18.5998 1.32329 18.6789C1.44785 18.7463 1.55286 18.8121 1.67206 18.9049C1.79197 18.9979 1.88394 19.1146 2.0667 19.1609C2.11513 19.223 2.13213 19.3165 2.18777 19.3718C2.45319 19.435 2.64737 19.568 2.93145 19.6132C2.99547 19.6652 2.94821 19.721 3.02201 19.7792C3.12446 19.8578 3.34471 19.8259 3.49232 19.8692C3.45484 20.0228 3.3354 20.1245 3.38592 20.2914C3.43271 20.4428 3.76519 20.4735 3.84109 20.6227C3.95355 20.666 4.12677 20.6495 4.28067 20.652C4.35145 20.6574 4.33515 20.7476 4.41711 20.7729C4.54796 20.8127 4.72491 20.7102 4.88741 20.6669C5.0639 20.6209 5.22129 20.5802 5.34259 20.5472C5.37588 20.6479 5.38287 20.8369 5.50953 20.8936C5.60731 20.9376 5.80615 20.8715 5.99474 20.8636C6.06482 20.8604 6.12325 20.8836 6.17658 20.878C6.25271 20.8718 6.32838 20.8278 6.40428 20.8181C6.49275 20.8074 6.57448 20.8534 6.64688 20.8481C6.78844 20.8374 6.92697 20.6644 6.99566 20.6227C7.06248 20.5811 7.03943 20.679 7.1321 20.652C7.27738 20.6018 7.33978 20.4507 7.45061 20.3507C7.50299 20.303 7.57587 20.2891 7.63245 20.2456C7.68344 20.2065 7.71766 20.1412 7.76865 20.0952C7.87086 20.0015 8.00264 19.9368 8.10253 19.8538C8.19566 19.7762 8.23198 19.6487 8.36027 19.6276C8.28157 20.058 8.0094 20.4209 7.79915 20.7878C7.15633 21.9095 6.45831 22.979 5.73609 24.0419C4.77218 25.4593 3.91955 26.9476 2.97549 28.3792C2.79715 28.8196 2.62229 29.3442 2.36897 29.66C2.34918 29.7599 2.36361 29.8939 2.29283 29.9762C2.46163 30.0408 2.59015 29.9562 2.73264 29.9311C2.85255 29.9097 3.10121 29.932 3.17245 29.8557C3.2125 29.8125 3.2104 29.5781 3.23322 29.4491C3.30703 29.031 3.43578 28.6457 3.59713 28.3344C3.80784 27.9286 4.09072 27.4664 4.32519 27.0841C4.82413 26.2705 5.36432 25.44 5.85718 24.6746C6.77406 23.2509 7.66066 21.8865 8.51162 20.4112C8.62175 20.2205 8.72583 20.0182 8.8909 19.8692C8.97774 19.9896 8.94375 20.2021 8.96703 20.3963C8.99241 20.6139 9.03082 20.8832 9.10324 21.1043C9.13537 21.2006 9.20102 21.2975 9.24014 21.3905C9.28717 21.5026 9.29462 21.624 9.33117 21.7063C9.37029 21.7963 9.54538 22.0114 9.64921 22.0083C9.82243 22.003 9.8094 21.7184 9.99845 21.6914C10.0955 21.8614 10.2241 22.0002 10.3624 22.1281C10.4099 22.3625 10.517 22.6557 10.6355 22.8817C10.7069 23.0177 10.7533 23.1616 10.9388 23.123C11.0613 23.3067 11.3044 23.4695 11.5307 23.6204C11.7772 23.7841 11.8322 23.7431 11.9703 23.4995C12.0317 23.3916 12.0783 23.3197 12.1372 23.2435C12.2797 23.3681 12.5137 23.5404 12.7744 23.6501C12.923 23.7122 13.0694 23.8171 13.184 23.8006C13.2981 23.7829 13.2715 23.7245 13.3355 23.6952C13.4734 23.7015 13.6564 23.9168 13.8512 23.9061C13.8983 23.9036 13.9441 23.8415 14.0028 23.8308C14.1982 23.7938 14.6561 24.0661 14.8373 23.9361C14.9981 23.821 14.868 23.4481 14.9588 23.2583C15.0822 23.2734 15.2196 23.2839 15.2927 23.213C15.5444 23.2969 15.9702 23.2581 16.2333 23.213C16.3094 23.1555 16.274 23.0223 16.2941 22.9416C16.5464 22.8789 17.0093 22.9523 17.0221 22.701C17.2323 22.6217 17.5208 22.6101 17.5988 22.4299C17.6172 22.3871 17.5981 22.3192 17.614 22.249C17.6249 22.1987 17.6703 22.1515 17.6747 22.1136C17.6838 22.0357 17.641 21.9204 17.6296 21.8123C17.6172 21.7 17.631 21.5854 17.6142 21.5117C17.5741 21.3308 17.41 21.0664 17.3562 20.9541C17.3092 20.8543 17.2233 20.7271 17.1744 20.6227C16.8626 20.2637 16.406 20.0508 16.1122 19.6734C16.4356 19.6564 16.8889 19.8387 17.2198 19.7187C17.5553 19.7197 18.1283 19.828 18.2512 19.5678C18.2296 19.4741 18.2168 19.3709 18.1751 19.2967C18.3581 19.2516 18.6638 19.33 18.7365 19.1758C18.9504 19.1726 19.1122 19.1174 19.2068 18.9954C19.2268 18.8803 19.153 18.8577 19.146 18.7694C19.407 18.747 19.6147 18.6719 19.814 18.5885C19.8701 18.5199 19.7965 18.4745 19.8291 18.4076C19.9336 18.2832 20.1562 18.2643 20.1932 18.1213C20.2317 17.9737 20.0277 17.803 19.9963 17.6247C20.0666 17.5724 20.2275 17.577 20.3297 17.5194C20.3725 17.4947 20.3919 17.4331 20.4359 17.3989C20.5774 17.2875 20.7376 17.2789 20.7544 17.1427C20.7674 17.0394 20.6752 16.9997 20.6782 16.9167C20.8438 16.8434 21.1779 16.8337 21.1029 16.6153C21.2608 16.4954 21.437 16.3947 21.5585 16.2387C21.4875 16.0982 21.4447 15.9303 21.3306 15.832C21.5553 15.739 21.7141 15.5804 21.8617 15.4102C21.8694 15.3128 21.7856 15.3051 21.8009 15.1993C21.8941 14.9961 22.1001 14.904 22.2105 14.718C22.1953 14.5918 22.0948 14.5511 22.0587 14.446C22.1574 14.2497 22.6519 14.1416 22.4379 13.874C22.5665 13.6947 22.8107 13.5689 22.8167 13.3164C23.1718 12.9813 23.6936 12.8111 24 12.4279C23.8375 12.185 23.535 12.3533 23.2999 12.3826L23.2998 12.3827Z" fill="white"/>
</svg>
