<svg width="189" height="32" viewBox="0 0 189 32" fill="none" xmlns="http://www.w3.org/2000/svg">
<path d="M23.2998 13.3827C23.208 13.3941 23.1009 13.375 22.9966 13.3827C22.7419 13.3995 22.4723 13.4771 22.2532 13.4578C22.181 13.4518 22.1114 13.4178 22.0408 13.4127C21.8574 13.3997 21.6897 13.4743 21.5102 13.4578C21.4495 13.4127 21.4779 13.2792 21.4187 13.2318C21.2504 13.1579 21.0837 13.1965 20.9338 13.1418C20.815 13.0979 20.68 12.9705 20.4332 13.0209C20.4111 12.6912 20.147 12.7479 19.8418 12.7803C19.7447 12.7903 19.5987 12.8219 19.5231 12.8103C19.4616 12.8005 19.3582 12.7105 19.3107 12.7052C19.1545 12.6859 18.9859 12.8026 18.8255 12.7803C18.6684 12.7579 18.6025 12.6228 18.416 12.5994C17.9901 12.547 17.5186 12.691 17.1722 12.8254C16.9522 12.9109 16.7042 12.9721 16.4893 13.0823C16.2824 13.1876 16.0367 13.3757 15.8074 13.488C15.8475 13.3997 15.9285 13.3457 16.0193 13.2771C16.0984 13.2181 16.1548 13.1328 16.2465 13.0511C16.3371 12.9719 16.4766 12.8949 16.5953 12.8105C16.7664 12.6896 16.9955 12.5859 16.8991 12.3587C16.9867 12.2978 17.1068 12.2255 17.2479 12.1478C17.4335 12.045 17.6768 11.9746 17.5967 11.8011C17.7401 11.7421 17.806 11.6074 17.9152 11.5154C17.8936 11.314 18.1201 11.2094 18.097 11.018C18.0763 10.8464 17.8428 10.828 17.7331 10.7018C17.8817 10.5658 18.0482 10.3904 18.067 10.1744C18.314 10.0924 18.4582 9.76405 18.1881 9.60245C18.2726 9.31413 18.6791 9.14021 18.5676 8.80375C18.6705 8.69773 18.9627 8.28478 18.9164 8.08083C18.8887 7.95783 18.6433 7.89087 18.5371 7.8246C18.3953 7.73694 18.2884 7.62999 18.1424 7.59859C18.2249 7.43932 18.3341 7.30632 18.461 7.19192C18.4477 7.02498 18.6644 6.88361 18.6582 6.69457C18.6537 6.56459 18.5911 6.58389 18.5371 6.46856C18.5885 6.34045 18.809 6.06561 18.6125 5.97191C18.7355 5.81914 18.8232 5.56198 18.7795 5.29386C18.663 5.19319 18.5147 5.12483 18.3094 5.1132C18.3085 4.95579 18.4395 4.7793 18.4302 4.57097C18.427 4.49075 18.3494 4.40588 18.3394 4.31473C18.3296 4.22917 18.3748 4.15407 18.3846 4.07408C18.3976 3.9741 18.393 3.85505 18.4149 3.74274C18.437 3.63183 18.4849 3.51465 18.4756 3.45652C18.4563 3.33654 18.3348 3.25957 18.3087 3.17075C18.3308 3.07682 18.325 2.99497 18.3387 2.9001C18.349 2.82477 18.4032 2.73408 18.3995 2.67386C18.3951 2.60155 18.3296 2.55923 18.3234 2.49296C18.3124 2.3674 18.4349 2.18 18.4598 2.01072C18.5171 1.63358 18.6072 1.30131 18.7189 1H18.1578C18.1078 1.1123 17.9278 1.22461 17.7783 1.37737C17.6575 1.50014 17.5553 1.72196 17.4444 1.78381C17.4028 1.80776 17.3273 1.7859 17.2475 1.8138C17.1159 1.86054 17.0796 2.00888 16.8836 1.93471C16.7718 1.95308 16.5655 2.26814 16.4284 2.26535C16.348 2.26442 16.2689 2.13537 16.1858 2.13026C15.9704 2.1177 15.8053 2.36696 15.5792 2.38626C15.447 2.39788 15.3329 2.34882 15.2305 2.37115C15.0717 2.40579 14.887 2.58087 14.7453 2.68737C14.6873 2.73178 14.6368 2.78712 14.5937 2.7927C14.4503 2.81269 14.3397 2.70225 14.2444 2.70225C14.0761 2.70155 13.959 2.81293 13.8503 2.89849C13.7699 2.96058 13.7092 3.07079 13.6072 3.1245C13.5003 3.18007 13.3753 3.13752 13.2277 3.1996C13.0566 3.27238 12.9062 3.71323 12.6819 3.75718C12.5742 3.77741 12.3665 3.71184 12.2421 3.66627C12.1164 3.62023 11.9637 3.5056 11.8626 3.51583C11.7208 3.53094 11.6815 3.74742 11.5749 3.8474C11.3208 3.89181 11.2752 4.14176 11.1353 4.29871C10.8314 4.245 10.7688 4.45171 10.6342 4.66027C10.5509 4.79002 10.468 4.89698 10.407 4.9923C10.2585 4.97626 10.1884 4.87023 10.0582 4.90139C9.95136 4.92697 9.93273 5.07811 9.83099 5.20273C9.79071 5.25203 9.70689 5.31573 9.67918 5.36805C9.61632 5.48663 9.62005 5.65079 9.52738 5.70008C9.35486 5.73333 9.18327 5.67334 8.99677 5.65497C8.82751 5.638 8.59095 5.56825 8.46569 5.62498C8.39724 5.65497 8.42029 5.69776 8.35953 5.7903C8.32111 5.84866 8.2501 5.8833 8.22332 5.92562C8.13345 6.06466 8.13997 6.19952 7.96535 6.25695C7.8806 6.48854 7.88689 6.81197 7.81354 7.05565C7.74788 7.11843 7.64591 7.10773 7.5863 7.17609C7.39935 7.3914 7.49993 7.98848 7.46524 8.3061C7.35954 8.35632 7.24801 8.40073 7.1621 8.47141C7.0536 8.69044 7.08597 8.96272 7.0557 9.21011C7.04405 9.30311 6.98492 9.38984 6.97956 9.48122C6.97584 9.55028 7.02403 9.61934 7.0252 9.69212C7.02613 9.75303 6.98119 9.82279 6.97956 9.88813C6.97444 10.1251 7.14604 10.3871 7.0252 10.5808C6.90669 10.5585 6.8387 10.4341 6.78259 10.3548C6.65337 10.1727 6.52253 9.99092 6.41845 9.78281C6.36816 9.6819 6.35396 9.55844 6.29738 9.46659C6.23941 9.37358 6.10624 9.34103 6.03965 9.2557C5.98749 9.18943 5.96887 9.09735 5.91788 9.02969C5.77702 8.84344 5.59913 8.69812 5.43267 8.53303C5.09833 8.5693 4.93605 8.26959 4.68971 8.18635C4.60496 8.15729 4.51323 8.16496 4.43174 8.14124C4.29157 8.09962 4.21102 8.00964 4.09786 7.915C3.89856 7.88338 3.73 7.81061 3.55188 7.7341C3.40497 7.67132 3.26317 7.55484 3.11207 7.53879C3.06201 7.53275 2.99915 7.56088 2.94513 7.55391C2.84758 7.54089 2.69252 7.46997 2.58099 7.41858C2.24828 7.26187 2.01266 7.10748 1.76216 6.83032C1.65203 6.70941 1.41432 6.41156 1.26158 6.42365C0.913039 6.45132 1.21246 7.10026 1.24622 7.35788C1.28533 7.65666 1.21991 7.90058 1.17078 8.09586C1.15169 8.1712 1.14098 8.26351 1.12538 8.30676C1.08999 8.40139 1.0085 8.43487 0.988942 8.51719C0.941213 8.71715 1.03877 8.87154 0.973808 9.05988C0.889994 9.12196 0.784984 9.16382 0.700705 9.2259C0.591278 9.36448 0.712113 9.56188 0.715838 9.72256C0.718399 9.8509 0.636446 9.95391 0.715838 10.0541C0.675094 10.1397 0.600357 10.1525 0.5794 10.265C0.547969 10.432 0.633183 10.661 0.640166 10.8224C0.58778 10.9416 0.434581 10.917 0.382195 11.0486C0.327714 11.1853 0.477657 11.3878 0.473228 11.6204C0.472297 11.6803 0.427826 11.7459 0.427826 11.8013C0.427128 11.9403 0.530035 12.0742 0.549364 12.1628C0.383124 12.5488 0.706986 12.9785 0.807103 13.3375C0.661354 13.4182 0.535161 13.5479 0.367293 13.6839C0.241798 13.7867 0.0224744 13.8616 0.00338337 13.9853C-0.0357315 14.2359 0.278818 14.3564 0.200356 14.6035C0.325619 14.7451 0.43691 14.9005 0.56473 15.0402C0.480677 15.3248 0.764033 15.4769 0.913507 15.6268C0.931435 15.7912 1.13469 15.8989 1.27742 15.9884C1.27975 16.0612 1.21222 16.0644 1.23202 16.1544C1.49301 16.4265 1.87859 16.5495 2.20266 16.742C2.36145 16.8357 2.49928 16.9636 2.64247 17.0733C2.78938 17.1854 2.95981 17.2847 3.03734 17.4498C2.4276 17.6104 1.77124 17.9915 1.38382 18.444C1.34913 18.4847 1.33353 18.5533 1.29279 18.61C1.21968 18.7123 0.986157 18.8814 0.944011 19.0016C0.903034 19.1178 0.958446 19.2713 0.944011 19.3931C1.05577 19.4992 1.17731 19.5998 1.32329 19.6789C1.44785 19.7463 1.55286 19.8121 1.67206 19.9049C1.79197 19.9979 1.88394 20.1146 2.0667 20.1609C2.11513 20.223 2.13213 20.3165 2.18777 20.3718C2.45319 20.435 2.64737 20.568 2.93145 20.6132C2.99547 20.6652 2.94821 20.721 3.02201 20.7792C3.12446 20.8578 3.34471 20.8259 3.49232 20.8692C3.45484 21.0228 3.3354 21.1245 3.38592 21.2914C3.43271 21.4428 3.76519 21.4735 3.84109 21.6227C3.95355 21.666 4.12677 21.6495 4.28067 21.652C4.35145 21.6574 4.33515 21.7476 4.41711 21.7729C4.54796 21.8127 4.72491 21.7102 4.88741 21.6669C5.0639 21.6209 5.22129 21.5802 5.34259 21.5472C5.37588 21.6479 5.38287 21.8369 5.50953 21.8936C5.60731 21.9376 5.80615 21.8715 5.99474 21.8636C6.06482 21.8604 6.12325 21.8836 6.17658 21.878C6.25271 21.8718 6.32838 21.8278 6.40428 21.8181C6.49275 21.8074 6.57448 21.8534 6.64688 21.8481C6.78844 21.8374 6.92697 21.6644 6.99566 21.6227C7.06248 21.5811 7.03943 21.679 7.1321 21.652C7.27738 21.6018 7.33978 21.4507 7.45061 21.3507C7.50299 21.303 7.57587 21.2891 7.63245 21.2456C7.68344 21.2065 7.71766 21.1412 7.76865 21.0952C7.87086 21.0015 8.00264 20.9368 8.10253 20.8538C8.19566 20.7762 8.23198 20.6487 8.36027 20.6276C8.28157 21.058 8.0094 21.4209 7.79915 21.7878C7.15633 22.9095 6.45831 23.979 5.73609 25.0419C4.77218 26.4593 3.91955 27.9476 2.97549 29.3792C2.79715 29.8196 2.62229 30.3442 2.36897 30.66C2.34918 30.7599 2.36361 30.8939 2.29283 30.9762C2.46163 31.0408 2.59015 30.9562 2.73264 30.9311C2.85255 30.9097 3.10121 30.932 3.17245 30.8557C3.2125 30.8125 3.2104 30.5781 3.23322 30.4491C3.30703 30.031 3.43578 29.6457 3.59713 29.3344C3.80784 28.9286 4.09072 28.4664 4.32519 28.0841C4.82413 27.2705 5.36432 26.44 5.85718 25.6746C6.77406 24.2509 7.66066 22.8865 8.51162 21.4112C8.62175 21.2205 8.72583 21.0182 8.8909 20.8692C8.97774 20.9896 8.94375 21.2021 8.96703 21.3963C8.99241 21.6139 9.03082 21.8832 9.10324 22.1043C9.13537 22.2006 9.20102 22.2975 9.24014 22.3905C9.28717 22.5026 9.29462 22.624 9.33117 22.7063C9.37029 22.7963 9.54538 23.0114 9.64921 23.0083C9.82243 23.003 9.8094 22.7184 9.99845 22.6914C10.0955 22.8614 10.2241 23.0002 10.3624 23.1281C10.4099 23.3625 10.517 23.6557 10.6355 23.8817C10.7069 24.0177 10.7533 24.1616 10.9388 24.123C11.0613 24.3067 11.3044 24.4695 11.5307 24.6204C11.7772 24.7841 11.8322 24.7431 11.9703 24.4995C12.0317 24.3916 12.0783 24.3197 12.1372 24.2435C12.2797 24.3681 12.5137 24.5404 12.7744 24.6501C12.923 24.7122 13.0694 24.8171 13.184 24.8006C13.2981 24.7829 13.2715 24.7245 13.3355 24.6952C13.4734 24.7015 13.6564 24.9168 13.8512 24.9061C13.8983 24.9036 13.9441 24.8415 14.0028 24.8308C14.1982 24.7938 14.6561 25.0661 14.8373 24.9361C14.9981 24.821 14.868 24.4481 14.9588 24.2583C15.0822 24.2734 15.2196 24.2839 15.2927 24.213C15.5444 24.2969 15.9702 24.2581 16.2333 24.213C16.3094 24.1555 16.274 24.0223 16.2941 23.9416C16.5464 23.8789 17.0093 23.9523 17.0221 23.701C17.2323 23.6217 17.5208 23.6101 17.5988 23.4299C17.6172 23.3871 17.5981 23.3192 17.614 23.249C17.6249 23.1987 17.6703 23.1515 17.6747 23.1136C17.6838 23.0357 17.641 22.9204 17.6296 22.8123C17.6172 22.7 17.631 22.5854 17.6142 22.5117C17.5741 22.3308 17.41 22.0664 17.3562 21.9541C17.3092 21.8543 17.2233 21.7271 17.1744 21.6227C16.8626 21.2637 16.406 21.0508 16.1122 20.6734C16.4356 20.6564 16.8889 20.8387 17.2198 20.7187C17.5553 20.7197 18.1283 20.828 18.2512 20.5678C18.2296 20.4741 18.2168 20.3709 18.1751 20.2967C18.3581 20.2516 18.6638 20.33 18.7365 20.1758C18.9504 20.1726 19.1122 20.1174 19.2068 19.9954C19.2268 19.8803 19.153 19.8577 19.146 19.7694C19.407 19.747 19.6147 19.6719 19.814 19.5885C19.8701 19.5199 19.7965 19.4745 19.8291 19.4076C19.9336 19.2832 20.1562 19.2643 20.1932 19.1213C20.2317 18.9737 20.0277 18.803 19.9963 18.6247C20.0666 18.5724 20.2275 18.577 20.3297 18.5194C20.3725 18.4947 20.3919 18.4331 20.4359 18.3989C20.5774 18.2875 20.7376 18.2789 20.7544 18.1427C20.7674 18.0394 20.6752 17.9997 20.6782 17.9167C20.8438 17.8434 21.1779 17.8337 21.1029 17.6153C21.2608 17.4954 21.437 17.3947 21.5585 17.2387C21.4875 17.0982 21.4447 16.9303 21.3306 16.832C21.5553 16.739 21.7141 16.5804 21.8617 16.4102C21.8694 16.3128 21.7856 16.3051 21.8009 16.1993C21.8941 15.9961 22.1001 15.904 22.2105 15.718C22.1953 15.5918 22.0948 15.5511 22.0587 15.446C22.1574 15.2497 22.6519 15.1416 22.4379 14.874C22.5665 14.6947 22.8107 14.5689 22.8167 14.3164C23.1718 13.9813 23.6936 13.8111 24 13.4279C23.8375 13.185 23.535 13.3533 23.2999 13.3826L23.2998 13.3827Z" fill="white"/>
<path d="M36.625 16.6094L36.3672 15.5547C36.6797 15.5078 37.4141 15.4375 38.5703 15.3438C39.7266 15.2344 40.4531 15.1484 40.75 15.0859V22.5391L38.9219 22.9141C38.9062 22.7578 38.8984 22.3906 38.8984 21.8125C38.8984 21.2188 38.8906 20.8359 38.875 20.6641C38.875 20.6953 38.8203 20.7891 38.7109 20.9453C38.6016 21.0859 38.4297 21.2656 38.1953 21.4844C37.9609 21.7031 37.6875 21.9141 37.375 22.1172C37.0625 22.3203 36.6641 22.4922 36.1797 22.6328C35.6953 22.7734 35.1875 22.8438 34.6562 22.8438C30.8594 22.8438 28.9609 19.8906 28.9609 13.9844C28.9609 12.9688 29.0391 11.9844 29.1953 11.0312C29.3516 10.0625 29.6172 9.09375 29.9922 8.125C30.3672 7.15625 30.9297 6.375 31.6797 5.78125C32.4453 5.1875 33.3516 4.89062 34.3984 4.89062C35.3047 4.89062 36.2422 5.04687 37.2109 5.35938C38.1797 5.67188 39.0078 6.0625 39.6953 6.53125L38.7578 7.60938C37.5391 6.70313 36.3359 6.25 35.1484 6.25C34.3672 6.25 33.6953 6.4375 33.1328 6.8125C32.5703 7.1875 32.1406 7.64063 31.8438 8.17188C31.5625 8.70312 31.3359 9.375 31.1641 10.1875C31.0078 11 30.9062 11.7031 30.8594 12.2969C30.8281 12.8906 30.8125 13.5859 30.8125 14.3828C30.8125 16.2891 31.1641 17.8516 31.8672 19.0703C32.5703 20.2734 33.4844 20.875 34.6094 20.875C35.0938 20.875 35.5625 20.7969 36.0156 20.6406C36.4844 20.4844 36.8828 20.2969 37.2109 20.0781C37.5391 19.8594 37.8359 19.6328 38.1016 19.3984C38.3672 19.1641 38.5625 18.9688 38.6875 18.8125C38.8281 18.6562 38.8984 18.5625 38.8984 18.5312V17.0312L36.625 16.6094ZM53.5234 22.375L53.8984 23.3359C53.1953 23.3203 52.4609 23.0938 51.6953 22.6562C50.9297 22.2188 50.2109 21.6719 49.5391 21.0156C48.8828 20.3438 48.2891 19.6719 47.7578 19C47.2422 18.3125 46.7969 17.6406 46.4219 16.9844L44.5703 16.7734C44.6016 17.9141 44.6641 19.6875 44.7578 22.0938C44.6172 22.5781 44.3438 22.8203 43.9375 22.8203C43.6562 22.8203 43.3828 22.7031 43.1172 22.4688C42.8672 22.25 42.7109 21.9766 42.6484 21.6484C42.6953 20.3359 42.7422 17.7812 42.7891 13.9844C42.8516 10.1875 42.9297 7.25 43.0234 5.17188L44.0781 4.89062C44.0781 5.39063 44.0859 5.67188 44.1016 5.73438C44.9922 5.14062 46.2422 4.84375 47.8516 4.84375C49.5859 4.84375 50.8828 5.39063 51.7422 6.48438C52.6016 7.5625 53.0312 9.07812 53.0312 11.0312C53.0312 11.75 52.9453 12.4453 52.7734 13.1172C52.6016 13.7734 52.3438 14.3906 52 14.9688C51.6719 15.5469 51.2109 16.0234 50.6172 16.3984C50.0234 16.7734 49.3438 16.9922 48.5781 17.0547C49.125 18.1953 49.8594 19.3047 50.7812 20.3828C51.7031 21.4609 52.6172 22.125 53.5234 22.375ZM44.3125 7.30469L44.5 14.6172C45.3594 15.0859 46.3516 15.3203 47.4766 15.3203C48.5547 15.3203 49.4688 14.9141 50.2188 14.1016C50.9688 13.2891 51.3438 12.2969 51.3438 11.125C51.3438 9.85938 50.9531 8.71875 50.1719 7.70312C49.3906 6.6875 48.4141 6.17969 47.2422 6.17969C46.2891 6.17969 45.3125 6.55469 44.3125 7.30469ZM64.0234 20.9453L64.2578 22C63.6484 22 62.5391 22.0234 60.9297 22.0703C59.3359 22.1328 58.1797 22.1641 57.4609 22.1641C56.3047 22.1641 55.5156 22.1094 55.0938 22C55.25 20.2812 55.3438 17.4062 55.375 13.375C55.4062 9.34375 55.5078 6.53125 55.6797 4.9375C56.2109 4.98438 57.6172 5.02344 59.8984 5.05469C62.1953 5.08594 63.6953 5.15625 64.3984 5.26562L64.6562 6.32031C63.9531 6.44531 62.5469 6.59375 60.4375 6.76562C58.3281 6.9375 57.2188 7.03125 57.1094 7.04688C57.125 7.40625 57.1562 8.14062 57.2031 9.25C57.2656 10.3594 57.3047 11.2734 57.3203 11.9922C57.8516 12.0547 58.8203 12.1484 60.2266 12.2734C61.6328 12.3828 62.5234 12.4531 62.8984 12.4844L63.1328 13.5625C59.8359 13.8594 57.9062 14.0156 57.3438 14.0312C57.3438 14.7188 57.3281 15.7656 57.2969 17.1719C57.2812 18.5625 57.2734 19.5859 57.2734 20.2422C60.8516 20.5703 63.1016 20.8047 64.0234 20.9453ZM74.9922 20.9453L75.2266 22C74.6172 22 73.5078 22.0234 71.8984 22.0703C70.3047 22.1328 69.1484 22.1641 68.4297 22.1641C67.2734 22.1641 66.4844 22.1094 66.0625 22C66.2188 20.2812 66.3125 17.4062 66.3438 13.375C66.375 9.34375 66.4766 6.53125 66.6484 4.9375C67.1797 4.98438 68.5859 5.02344 70.8672 5.05469C73.1641 5.08594 74.6641 5.15625 75.3672 5.26562L75.625 6.32031C74.9219 6.44531 73.5156 6.59375 71.4062 6.76562C69.2969 6.9375 68.1875 7.03125 68.0781 7.04688C68.0938 7.40625 68.125 8.14062 68.1719 9.25C68.2344 10.3594 68.2734 11.2734 68.2891 11.9922C68.8203 12.0547 69.7891 12.1484 71.1953 12.2734C72.6016 12.3828 73.4922 12.4531 73.8672 12.4844L74.1016 13.5625C70.8047 13.8594 68.875 14.0156 68.3125 14.0312C68.3125 14.7188 68.2969 15.7656 68.2656 17.1719C68.25 18.5625 68.2422 19.5859 68.2422 20.2422C71.8203 20.5703 74.0703 20.8047 74.9922 20.9453ZM77.0312 21.3438L77.3359 5.125H78.6016L86.2656 19.6797V17.8281C86.2656 13.1094 86.3516 8.86719 86.5234 5.10156L87.8594 5.35938C88.0312 8.75 88.1719 14.3359 88.2812 22.1172C87.9531 22.2578 87.6094 22.3281 87.25 22.3281C86.7188 22.3281 86.1641 22.1719 85.5859 21.8594C84.6328 20.3906 83.4453 18.2422 82.0234 15.4141C80.6172 12.5859 79.6172 10.6484 79.0234 9.60156C79.0391 10.6641 79.0469 12.6016 79.0469 15.4141C79.0625 18.2266 79.0938 20.3594 79.1406 21.8125C79 22.2969 78.7266 22.5391 78.3203 22.5391C78.0391 22.5391 77.7656 22.4219 77.5 22.1875C77.25 21.9531 77.0938 21.6719 77.0312 21.3438ZM107.641 6.53125L106.703 7.60938C105.484 6.70313 104.281 6.25 103.094 6.25C102.312 6.25 101.641 6.4375 101.078 6.8125C100.516 7.1875 100.086 7.64063 99.7891 8.17188C99.5078 8.70312 99.2812 9.375 99.1094 10.1875C98.9531 11 98.8516 11.7031 98.8047 12.2969C98.7734 12.8906 98.7578 13.5859 98.7578 14.3828C98.7578 15.1641 98.8984 16.0547 99.1797 17.0547C99.4766 18.0391 99.9688 18.9609 100.656 19.8203C101.344 20.6797 102.141 21.1094 103.047 21.1094C104.031 21.1094 105.539 20.5938 107.57 19.5625C107.773 19.8594 108.039 20.3516 108.367 21.0391C106.398 22.3984 104.641 23.0781 103.094 23.0781C102.094 23.0781 101.18 22.7734 100.352 22.1641C99.5234 21.5547 98.8672 20.7812 98.3828 19.8438C97.9141 18.9062 97.5469 17.9297 97.2812 16.9141C97.0312 15.8828 96.9062 14.9062 96.9062 13.9844C96.9062 12.9688 96.9844 11.9844 97.1406 11.0312C97.2969 10.0625 97.5625 9.09375 97.9375 8.125C98.3125 7.15625 98.875 6.375 99.625 5.78125C100.391 5.1875 101.297 4.89062 102.344 4.89062C103.25 4.89062 104.188 5.04687 105.156 5.35938C106.125 5.67188 106.953 6.0625 107.641 6.53125ZM108.32 14.1484C108.32 13.6172 108.32 13.2188 108.32 12.9531C108.32 12.6719 108.328 12.25 108.344 11.6875C108.375 11.125 108.406 10.6797 108.438 10.3516C108.484 10.0234 108.547 9.60156 108.625 9.08594C108.703 8.55469 108.805 8.13281 108.93 7.82031C109.055 7.49219 109.195 7.125 109.352 6.71875C109.523 6.3125 109.734 5.98437 109.984 5.73438C110.234 5.48438 110.508 5.25 110.805 5.03125C111.102 4.79688 111.453 4.625 111.859 4.51562C112.266 4.40625 112.711 4.35156 113.195 4.35156C114.164 4.35156 115.008 4.54688 115.727 4.9375C116.445 5.3125 117.008 5.78906 117.414 6.36719C117.82 6.94531 118.141 7.65625 118.375 8.5C118.625 9.34375 118.781 10.1484 118.844 10.9141C118.922 11.6797 118.961 12.5234 118.961 13.4453C118.961 14.0703 118.945 14.6328 118.914 15.1328C118.898 15.6328 118.852 16.2031 118.773 16.8438C118.711 17.4688 118.609 18.0234 118.469 18.5078C118.344 18.9922 118.164 19.4844 117.93 19.9844C117.695 20.4688 117.414 20.875 117.086 21.2031C116.773 21.5156 116.375 21.7734 115.891 21.9766C115.406 22.1797 114.867 22.2812 114.273 22.2812C113.305 22.2812 112.469 22.1641 111.766 21.9297C111.078 21.6953 110.508 21.3672 110.055 20.9453C109.617 20.5234 109.266 19.9688 109 19.2812C108.75 18.5938 108.57 17.8438 108.461 17.0312C108.367 16.2188 108.32 15.2578 108.32 14.1484ZM117.273 14.3359C117.273 13.5703 117.211 12.7734 117.086 11.9453C116.977 11.1172 116.781 10.2266 116.5 9.27344C116.234 8.32031 115.805 7.54688 115.211 6.95312C114.617 6.34375 113.906 6.03906 113.078 6.03906C112.453 6.03906 111.898 6.46094 111.414 7.30469C110.945 8.13281 110.609 9.07031 110.406 10.1172C110.203 11.1484 110.102 12.125 110.102 13.0469C110.102 13.6875 110.102 14.1797 110.102 14.5234C110.117 14.8516 110.148 15.3281 110.195 15.9531C110.242 16.5625 110.305 17.0469 110.383 17.4062C110.477 17.7656 110.617 18.1797 110.805 18.6484C110.992 19.1172 111.211 19.4844 111.461 19.75C111.727 20 112.062 20.2266 112.469 20.4297C112.891 20.6172 113.359 20.7188 113.875 20.7344C115.016 20.6719 115.867 20.0312 116.43 18.8125C116.992 17.5938 117.273 16.1016 117.273 14.3359ZM137.148 22L135.367 22.1641C134.508 16.7734 133.578 12.1562 132.578 8.3125C132.062 9.53125 131.492 11.25 130.867 13.4688C130.258 15.6719 129.836 17.1016 129.602 17.7578C129.57 17.7578 129.516 17.7656 129.438 17.7812C129.375 17.7812 129.32 17.7812 129.273 17.7812C129.055 17.7812 128.695 17.7578 128.195 17.7109C127.695 17.6641 127.375 17.6406 127.234 17.6406C127.219 17.1875 126.82 15.6797 126.039 13.1172C125.258 10.5391 124.789 8.89062 124.633 8.17188C124.352 10.7031 123.258 15.3125 121.352 22L119.898 21.8594C120.117 20.1562 120.656 17.4766 121.516 13.8203C122.375 10.1641 122.883 7.33594 123.039 5.33594C123.32 5.30469 123.547 5.28906 123.719 5.28906C123.875 5.28906 124.453 5.35156 125.453 5.47656C125.672 5.50781 125.984 6.21875 126.391 7.60938C126.812 8.98438 127.234 10.5 127.656 12.1562C128.078 13.8125 128.344 14.7891 128.453 15.0859C128.891 14.0078 129.414 12.2578 130.023 9.83594C130.648 7.41406 131.086 5.875 131.336 5.21875C131.586 5.23437 132.375 5.30469 133.703 5.42969C134.109 7.00781 134.5 8.71094 134.875 10.5391C135.266 12.3672 135.68 14.4453 136.117 16.7734C136.57 19.1016 136.914 20.8438 137.148 22ZM154.398 22L152.617 22.1641C151.758 16.7734 150.828 12.1562 149.828 8.3125C149.312 9.53125 148.742 11.25 148.117 13.4688C147.508 15.6719 147.086 17.1016 146.852 17.7578C146.82 17.7578 146.766 17.7656 146.688 17.7812C146.625 17.7812 146.57 17.7812 146.523 17.7812C146.305 17.7812 145.945 17.7578 145.445 17.7109C144.945 17.6641 144.625 17.6406 144.484 17.6406C144.469 17.1875 144.07 15.6797 143.289 13.1172C142.508 10.5391 142.039 8.89062 141.883 8.17188C141.602 10.7031 140.508 15.3125 138.602 22L137.148 21.8594C137.367 20.1562 137.906 17.4766 138.766 13.8203C139.625 10.1641 140.133 7.33594 140.289 5.33594C140.57 5.30469 140.797 5.28906 140.969 5.28906C141.125 5.28906 141.703 5.35156 142.703 5.47656C142.922 5.50781 143.234 6.21875 143.641 7.60938C144.062 8.98438 144.484 10.5 144.906 12.1562C145.328 13.8125 145.594 14.7891 145.703 15.0859C146.141 14.0078 146.664 12.2578 147.273 9.83594C147.898 7.41406 148.336 5.875 148.586 5.21875C148.836 5.23437 149.625 5.30469 150.953 5.42969C151.359 7.00781 151.75 8.71094 152.125 10.5391C152.516 12.3672 152.93 14.4453 153.367 16.7734C153.82 19.1016 154.164 20.8438 154.398 22ZM164.359 4.60938L165.742 4.72656C165.945 7.60156 166.047 10.0312 166.047 12.0156C166.047 13.4531 166.008 15.0938 165.93 16.9375C165.898 17.7188 165.836 18.3828 165.742 18.9297C165.648 19.4609 165.484 19.9844 165.25 20.5C165.016 21.0156 164.695 21.4297 164.289 21.7422C163.898 22.0391 163.383 22.2734 162.742 22.4453C162.102 22.6328 161.328 22.7266 160.422 22.7266C159.766 22.7266 159.188 22.6641 158.688 22.5391C158.188 22.4297 157.766 22.2812 157.422 22.0938C157.094 21.9062 156.812 21.6641 156.578 21.3672C156.344 21.0547 156.156 20.7344 156.016 20.4062C155.891 20.0781 155.789 19.6875 155.711 19.2344C155.648 18.7812 155.602 18.3516 155.57 17.9453C155.539 17.5391 155.508 17.0625 155.477 16.5156C155.477 16.4688 155.477 16.4375 155.477 16.4219C155.398 14.5156 155.359 12.8984 155.359 11.5703C155.359 10.4453 155.406 8.17969 155.5 4.77344L156.789 5.05469C156.82 6.49219 156.906 8.54688 157.047 11.2188C157.188 13.875 157.281 15.7656 157.328 16.8906C157.344 17.4219 157.367 17.8438 157.398 18.1562C157.43 18.4688 157.5 18.8281 157.609 19.2344C157.734 19.6406 157.898 19.9531 158.102 20.1719C158.305 20.3906 158.594 20.5781 158.969 20.7344C159.344 20.8906 159.805 20.9688 160.352 20.9688C160.898 20.9688 161.367 20.9375 161.758 20.875C162.164 20.7969 162.492 20.6641 162.742 20.4766C163.008 20.2891 163.219 20.1016 163.375 19.9141C163.547 19.7266 163.68 19.4531 163.773 19.0938C163.867 18.7188 163.93 18.3984 163.961 18.1328C164.008 17.8516 164.055 17.4453 164.102 16.9141C164.211 15.5703 164.273 13.3984 164.289 10.3984C164.305 7.39844 164.328 5.46875 164.359 4.60938ZM167.219 6.27344L166.984 5.21875L175.938 4.70312C176.328 4.71875 176.656 4.85937 176.922 5.125C177.188 5.39063 177.32 5.67969 177.32 5.99219C177.32 6.19531 177.242 6.375 177.086 6.53125C176.93 6.6875 176.695 6.78125 176.383 6.8125L172.445 6.60156C172.836 12.1172 173.125 17.1328 173.312 21.6484C173.172 22.1172 172.906 22.3516 172.516 22.3516C172.234 22.3516 171.961 22.2344 171.695 22C171.43 21.7812 171.266 21.5078 171.203 21.1797C171.234 20.3359 171.25 19.0547 171.25 17.3359C171.25 16.6953 171.242 15.7344 171.227 14.4531C171.227 13.1719 171.227 12.2109 171.227 11.5703C171.227 9.71094 171.258 8.03125 171.32 6.53125C169.555 6.40625 168.188 6.32031 167.219 6.27344ZM187.211 20.9453L187.445 22C186.836 22 185.727 22.0234 184.117 22.0703C182.523 22.1328 181.367 22.1641 180.648 22.1641C179.492 22.1641 178.703 22.1094 178.281 22C178.438 20.2812 178.531 17.4062 178.562 13.375C178.594 9.34375 178.695 6.53125 178.867 4.9375C179.398 4.98438 180.805 5.02344 183.086 5.05469C185.383 5.08594 186.883 5.15625 187.586 5.26562L187.844 6.32031C187.141 6.44531 185.734 6.59375 183.625 6.76562C181.516 6.9375 180.406 7.03125 180.297 7.04688C180.312 7.40625 180.344 8.14062 180.391 9.25C180.453 10.3594 180.492 11.2734 180.508 11.9922C181.039 12.0547 182.008 12.1484 183.414 12.2734C184.82 12.3828 185.711 12.4531 186.086 12.4844L186.32 13.5625C183.023 13.8594 181.094 14.0156 180.531 14.0312C180.531 14.7188 180.516 15.7656 180.484 17.1719C180.469 18.5625 180.461 19.5859 180.461 20.2422C184.039 20.5703 186.289 20.8047 187.211 20.9453Z" fill="white"/>
</svg>
