<svg width="15" height="18" viewBox="0 0 15 18" fill="none" xmlns="http://www.w3.org/2000/svg">
<path d="M13.0658 15.2719C13.1874 15.2717 13.3088 15.2615 13.4285 15.2411L15 18H12.9456L12.4428 17.1197H2.55719L2.05437 18H0L1.57146 15.2409V15.2411C1.69124 15.2613 1.81261 15.2717 1.93418 15.2719H3.60845L3.21424 15.9442H11.7856L11.3914 15.2719L13.0658 15.2719ZM14.6743 9.69163L0.325996 9.69183V1.58339C0.325996 1.16336 0.495597 0.760591 0.797134 0.463776C1.09887 0.166754 1.50805 0 1.93452 0H13.0773C13.5038 0 13.9129 0.166754 14.2147 0.463776C14.5164 0.760601 14.6858 1.16338 14.6858 1.58339L14.6743 9.69163ZM9.17999 1.68715C9.17999 1.60338 9.11083 1.53531 9.02553 1.53531H5.97429C5.88899 1.53531 5.81984 1.60339 5.81984 1.68715V2.10914C5.81984 2.19291 5.889 2.26098 5.97429 2.26098H9.02553C9.11084 2.26098 9.17999 2.1929 9.17999 2.10914V1.68715ZM14.6743 10.2541V13.1284C14.6743 13.5482 14.5047 13.9506 14.203 14.247C13.9012 14.5436 13.4921 14.7098 13.0658 14.709H1.92306C1.49676 14.7098 1.08761 14.5436 0.785874 14.247C0.484137 13.9505 0.314537 13.5482 0.314537 13.1284V10.2541H14.6743ZM4.67442 12.4816C4.67442 12.1965 4.55923 11.9231 4.35435 11.7216C4.14948 11.5201 3.87166 11.4069 3.58207 11.4073C3.29229 11.4075 3.01467 11.5211 2.81019 11.723C2.60571 11.9248 2.49091 12.1983 2.49151 12.4836C2.49211 12.7686 2.6077 13.0417 2.81278 13.243C3.01805 13.4441 3.29607 13.5567 3.58583 13.5559C3.87581 13.5567 4.15404 13.4439 4.35929 13.2422C4.56457 13.0407 4.67996 12.7671 4.67996 12.4816L4.67442 12.4816ZM12.4942 12.4816H12.494C12.494 12.1965 12.379 11.9231 12.1742 11.7216C11.9693 11.5201 11.6913 11.4069 11.4017 11.4073C11.1121 11.4075 10.8345 11.5211 10.63 11.723C10.4253 11.9248 10.3107 12.1983 10.3113 12.4836C10.3117 12.7686 10.4273 13.0417 10.6326 13.243C10.8379 13.4441 11.1159 13.5567 11.4054 13.5559C11.6954 13.5567 11.9739 13.4439 12.1791 13.2422C12.3844 13.0407 12.4998 12.7671 12.4998 12.4816L12.4942 12.4816Z" fill="#94A196"/>
</svg>
