<svg width="25" height="24" viewBox="0 0 25 24" fill="none" xmlns="http://www.w3.org/2000/svg">
<path d="M16.8706 3C15.1306 3 13.4606 3.81 12.3706 5.09C11.2806 3.81 9.61061 3 7.87061 3C4.79061 3 2.37061 5.42 2.37061 8.5C2.37061 12.28 5.77061 15.36 10.9206 20.04L12.3706 21.35L13.8206 20.03C18.9706 15.36 22.3706 12.28 22.3706 8.5C22.3706 5.42 19.9506 3 16.8706 3ZM12.4706 18.55L12.3706 18.65L12.2706 18.55C7.5106 14.24 4.37061 11.39 4.37061 8.5C4.37061 6.5 5.87061 5 7.87061 5C9.41061 5 10.9106 5.99 11.4406 7.36H13.3106C13.8306 5.99 15.3306 5 16.8706 5C18.8706 5 20.3706 6.5 20.3706 8.5C20.3706 11.39 17.2306 14.24 12.4706 18.55Z" fill="#656E66"/>
</svg>
