<svg width="21" height="20" viewBox="0 0 21 20" fill="none" xmlns="http://www.w3.org/2000/svg">
<path d="M17.8006 10.98C17.8406 10.66 17.8706 10.34 17.8706 10C17.8706 9.66 17.8406 9.34 17.8006 9.02L19.9106 7.37C20.1006 7.22 20.1506 6.95 20.0306 6.73L18.0306 3.27C17.9406 3.11 17.7706 3.02 17.5906 3.02C17.5306 3.02 17.4706 3.03 17.4206 3.05L14.9306 4.05C14.4106 3.65 13.8506 3.32 13.2406 3.07L12.8606 0.42C12.8306 0.18 12.6206 0 12.3706 0H8.37057C8.12057 0 7.91057 0.18 7.88057 0.42L7.50057 3.07C6.89057 3.32 6.33057 3.66 5.81057 4.05L3.32057 3.05C3.26057 3.03 3.20057 3.02 3.14057 3.02C2.97057 3.02 2.80057 3.11 2.71057 3.27L0.710567 6.73C0.580567 6.95 0.640567 7.22 0.830567 7.37L2.94057 9.02C2.90057 9.34 2.87057 9.67 2.87057 10C2.87057 10.33 2.90057 10.66 2.94057 10.98L0.830567 12.63C0.640567 12.78 0.590567 13.05 0.710567 13.27L2.71057 16.73C2.80057 16.89 2.97057 16.98 3.15057 16.98C3.21057 16.98 3.27057 16.97 3.32057 16.95L5.81057 15.95C6.33057 16.35 6.89057 16.68 7.50057 16.93L7.88057 19.58C7.91057 19.82 8.12057 20 8.37057 20H12.3706C12.6206 20 12.8306 19.82 12.8606 19.58L13.2406 16.93C13.8506 16.68 14.4106 16.34 14.9306 15.95L17.4206 16.95C17.4806 16.97 17.5406 16.98 17.6006 16.98C17.7706 16.98 17.9406 16.89 18.0306 16.73L20.0306 13.27C20.1506 13.05 20.1006 12.78 19.9106 12.63L17.8006 10.98ZM15.8206 9.27C15.8606 9.58 15.8706 9.79 15.8706 10C15.8706 10.21 15.8506 10.43 15.8206 10.73L15.6806 11.86L16.5706 12.56L17.6506 13.4L16.9506 14.61L15.6806 14.1L14.6406 13.68L13.7406 14.36C13.3106 14.68 12.9006 14.92 12.4906 15.09L11.4306 15.52L11.2706 16.65L11.0706 18H9.67057L9.48057 16.65L9.32057 15.52L8.26057 15.09C7.83057 14.91 7.43057 14.68 7.03057 14.38L6.12057 13.68L5.06057 14.11L3.79057 14.62L3.09057 13.41L4.17057 12.57L5.06057 11.87L4.92057 10.74C4.89057 10.43 4.87057 10.2 4.87057 10C4.87057 9.8 4.89057 9.57 4.92057 9.27L5.06057 8.14L4.17057 7.44L3.09057 6.6L3.79057 5.39L5.06057 5.9L6.10057 6.32L7.00057 5.64C7.43057 5.32 7.84057 5.08 8.25057 4.91L9.31057 4.48L9.47057 3.35L9.67057 2H11.0606L11.2506 3.35L11.4106 4.48L12.4706 4.91C12.9006 5.09 13.3006 5.32 13.7006 5.62L14.6106 6.32L15.6706 5.89L16.9406 5.38L17.6406 6.59L16.5706 7.44L15.6806 8.14L15.8206 9.27ZM10.3706 6C8.16057 6 6.37057 7.79 6.37057 10C6.37057 12.21 8.16057 14 10.3706 14C12.5806 14 14.3706 12.21 14.3706 10C14.3706 7.79 12.5806 6 10.3706 6ZM10.3706 12C9.27057 12 8.37057 11.1 8.37057 10C8.37057 8.9 9.27057 8 10.3706 8C11.4706 8 12.3706 8.9 12.3706 10C12.3706 11.1 11.4706 12 10.3706 12Z" fill="#94A196"/>
</svg>
