<svg width="16" height="18" viewBox="0 0 16 18" fill="none" xmlns="http://www.w3.org/2000/svg">
<path d="M13.5658 15.2719C13.6874 15.2717 13.8088 15.2615 13.9285 15.2411L15.5 18H13.4456L12.9428 17.1197H3.05719L2.55437 18H0.5L2.07146 15.2409V15.2411C2.19124 15.2613 2.31261 15.2717 2.43418 15.2719H4.10845L3.71424 15.9442H12.2856L11.8914 15.2719L13.5658 15.2719ZM15.1743 9.69163L0.825996 9.69183V1.58339C0.825996 1.16336 0.995597 0.760591 1.29713 0.463776C1.59887 0.166754 2.00805 0 2.43452 0H13.5773C14.0038 0 14.4129 0.166754 14.7147 0.463776C15.0164 0.760601 15.1858 1.16338 15.1858 1.58339L15.1743 9.69163ZM9.67999 1.68715C9.67999 1.60338 9.61083 1.53531 9.52553 1.53531H6.47429C6.38899 1.53531 6.31984 1.60339 6.31984 1.68715V2.10914C6.31984 2.19291 6.389 2.26098 6.47429 2.26098H9.52553C9.61084 2.26098 9.67999 2.1929 9.67999 2.10914V1.68715ZM15.1743 10.2541V13.1284C15.1743 13.5482 15.0047 13.9506 14.703 14.247C14.4012 14.5436 13.9921 14.7098 13.5658 14.709H2.42306C1.99676 14.7098 1.58761 14.5436 1.28587 14.247C0.984137 13.9505 0.814537 13.5482 0.814537 13.1284V10.2541H15.1743ZM5.17442 12.4816C5.17442 12.1965 5.05923 11.9231 4.85435 11.7216C4.64948 11.5201 4.37166 11.4069 4.08207 11.4073C3.79229 11.4075 3.51467 11.5211 3.31019 11.723C3.10571 11.9248 2.99091 12.1983 2.99151 12.4836C2.99211 12.7686 3.1077 13.0417 3.31278 13.243C3.51805 13.4441 3.79607 13.5567 4.08583 13.5559C4.37581 13.5567 4.65404 13.4439 4.85929 13.2422C5.06457 13.0407 5.17996 12.7671 5.17996 12.4816L5.17442 12.4816ZM12.9942 12.4816H12.994C12.994 12.1965 12.879 11.9231 12.6742 11.7216C12.4693 11.5201 12.1913 11.4069 11.9017 11.4073C11.6121 11.4075 11.3345 11.5211 11.13 11.723C10.9253 11.9248 10.8107 12.1983 10.8113 12.4836C10.8117 12.7686 10.9273 13.0417 11.1326 13.243C11.3379 13.4441 11.6159 13.5567 11.9054 13.5559C12.1954 13.5567 12.4739 13.4439 12.6791 13.2422C12.8844 13.0407 12.9998 12.7671 12.9998 12.4816L12.9942 12.4816Z" fill="#656E66"/>
</svg>
