<svg width="24" height="24" viewBox="0 0 24 24" fill="none" xmlns="http://www.w3.org/2000/svg">
<path d="M18.6231 9.83764L17.6952 17.6405C17.6415 18.0923 17.4224 18.5089 17.0791 18.8114C16.7355 19.1138 16.2921 19.2809 15.8326 19.2811H15.0272V17.0367C15.0272 16.5018 14.8124 15.9889 14.43 15.611C14.0477 15.2329 13.5294 15.0212 12.9891 15.0218H11.0005C10.4609 15.0218 9.9433 15.2342 9.56163 15.6121C9.17996 15.9897 8.96567 16.5022 8.96567 17.0366V19.281H8.15702C7.69743 19.2808 7.25402 19.1137 6.91053 18.8114C6.56723 18.5088 6.34807 18.0923 6.29445 17.6404L5.36648 9.83758C5.32371 9.47092 5.39237 9.09989 5.56367 8.77212C5.73474 8.44414 6.00083 8.1743 6.32747 7.9967L8.08398 7.03542H8.08422C8.3792 8.1931 9.1821 9.15919 10.2726 9.66913C11.3631 10.1788 12.6267 10.1788 13.7171 9.66913C14.8076 9.15918 15.6105 8.1931 15.9055 7.03542L17.662 7.9967H17.6622C17.9896 8.17362 18.2561 8.44347 18.4272 8.77148C18.5985 9.09947 18.667 9.47073 18.6233 9.83758L18.6231 9.83764ZM8.45866 4.12504C8.69978 3.69474 9.01765 3.31112 9.39681 2.99301L8.60135 1.828C8.47444 1.62934 8.25551 1.5062 8.01809 1.50002H4.66071C4.28874 1.52519 4 1.83143 4 2.20062C4 2.5698 4.28874 2.87579 4.66071 2.90098H7.64335L8.45866 4.12504ZM19.3292 1.5H15.972C15.7352 1.50046 15.5142 1.61719 15.382 1.81173L14.5865 2.98975L14.5868 2.98952C14.968 3.30881 15.2879 3.69334 15.5314 4.125L16.3567 2.90761H19.3393C19.7113 2.88243 20 2.57619 20 2.20701C20 1.83782 19.7113 1.53184 19.3393 1.50641L19.3292 1.5ZM12.9896 15.6784H11.001C10.6371 15.6784 10.288 15.8214 10.0307 16.0762C9.7734 16.3309 9.62892 16.6765 9.62892 17.0368V21.1416C9.62892 21.5018 9.7734 21.8474 10.0307 22.1022C10.288 22.357 10.6371 22.5 11.001 22.5H12.9896C13.3535 22.5 13.7026 22.357 13.9599 22.1022C14.2172 21.8475 14.3617 21.5019 14.3617 21.1416V17.0368C14.3617 16.6766 14.2172 16.3309 13.9599 16.0762C13.7026 15.8214 13.3535 15.6784 12.9896 15.6784ZM8.61828 6.05152C8.61828 5.1646 8.97406 4.31435 9.60726 3.68717C10.2407 3.06028 11.0998 2.70778 11.9954 2.70778C12.891 2.70778 13.75 3.06026 14.3835 3.68717C15.0167 4.31429 15.3725 5.1646 15.3725 6.05152C15.3725 6.93821 15.0167 7.78869 14.3835 8.41588C13.75 9.04277 12.891 9.39503 11.9954 9.39503C11.1 9.39411 10.2414 9.04164 9.60845 8.41476C8.97526 7.78811 8.61899 6.93804 8.61834 6.05158L8.61828 6.05152ZM10.4277 6.05152C10.4277 6.46305 10.5928 6.85788 10.8868 7.14897C11.1809 7.43988 11.5797 7.60353 11.9953 7.60353C12.4109 7.60353 12.8098 7.43988 13.1038 7.14897C13.3978 6.85783 13.5629 6.46302 13.5629 6.05152C13.5629 5.63977 13.3978 5.24516 13.1038 4.95407C12.8097 4.66298 12.4109 4.49952 11.9953 4.49952C11.5792 4.4986 11.1799 4.66179 10.8859 4.95316C10.5916 5.24429 10.4268 5.63958 10.4277 6.05155L10.4277 6.05152Z" fill="#656E66"/>
</svg>
