<svg width="24" height="24" viewBox="0 0 24 24" fill="none" xmlns="http://www.w3.org/2000/svg">
<path d="M21 6.63389V10.6727C20.9992 10.8235 20.9421 10.9678 20.8413 11.0732C20.7402 11.1788 20.6041 11.2368 20.4628 11.2343H19.2141V6.06916H20.4628C20.6045 6.06685 20.7412 6.1253 20.8423 6.23129C20.9431 6.33749 21 6.48244 21 6.63389L21 6.63389ZM3 6.63389V10.6727C3 10.9829 3.23542 11.2343 3.52599 11.2343H4.83671L4.83652 6.06917H3.52599C3.23505 6.07085 3 6.32326 3 6.63389H3ZM6.80245 20.0991C6.80245 20.3381 6.89132 20.5672 7.04964 20.7361C7.20777 20.9051 7.42239 21 7.64624 21H9.13411C9.35776 21 9.57238 20.9051 9.73071 20.7361C9.88883 20.5672 9.97771 20.3381 9.97771 20.0991V18.8709H6.80244L6.80245 20.0991ZM14.6548 20.0991C14.6548 20.3381 14.7437 20.5672 14.902 20.7361C15.0602 20.9051 15.2748 21 15.4986 21H16.9751C17.199 21 17.4136 20.9051 17.5717 20.7361C17.73 20.5672 17.8189 20.3381 17.8189 20.0991V18.8709H14.6548L14.6548 20.0991ZM18.6515 3.88295V13.3032H5.39861V3.88295C5.39861 3.64876 5.48572 3.4242 5.6409 3.25849C5.79588 3.09301 6.00619 3 6.22555 3H17.8246C18.0439 3 18.2542 3.09301 18.4092 3.25849C18.5644 3.42418 18.6515 3.64873 18.6515 3.88295H18.6515ZM16.9639 5.3484C16.9623 5.04718 16.7342 4.80336 16.4521 4.80191H7.59824C7.31612 4.80338 7.08797 5.0472 7.08641 5.3484V10.9581C7.08798 11.2589 7.31673 11.5017 7.59824 11.5017H16.4521C16.7336 11.5017 16.9624 11.2589 16.9639 10.9581V5.3484ZM5.39901 13.9037H18.6519V17.3962C18.6511 17.6298 18.5636 17.8537 18.4086 18.0185C18.2537 18.1834 18.0437 18.276 17.825 18.276H6.22595C6.0072 18.276 5.79728 18.1834 5.6423 18.0185C5.48732 17.8537 5.39982 17.6297 5.39903 17.3962L5.39901 13.9037ZM14.4864 16.0868C14.4864 16.3656 14.5902 16.6329 14.7748 16.83C14.9594 17.0271 15.2097 17.1379 15.4708 17.1379C15.7318 17.1379 15.9823 17.0271 16.1669 16.83C16.3515 16.6329 16.4551 16.3656 16.4551 16.0868C16.4551 15.8082 16.3515 15.5407 16.1669 15.3436C15.9823 15.1465 15.7317 15.0359 15.4708 15.0359C15.2097 15.0359 14.9594 15.1465 14.7748 15.3436C14.5902 15.5407 14.4864 15.8082 14.4864 16.0868ZM7.59578 16.0868C7.59578 16.3656 7.69936 16.6329 7.88397 16.83C8.06858 17.0271 8.31911 17.1379 8.58001 17.1379C8.84114 17.1379 9.09149 17.0271 9.27606 16.83C9.46067 16.6329 9.56445 16.3656 9.56445 16.0868C9.56445 15.8082 9.46067 15.5407 9.27606 15.3436C9.09145 15.1465 8.84111 15.0359 8.58001 15.0359C8.31909 15.0359 8.06854 15.1465 7.88397 15.3436C7.69936 15.5407 7.59578 15.8082 7.59578 16.0868Z" fill="#656E66"/>
</svg>
