<svg width="24" height="24" viewBox="0 0 24 24" fill="none" xmlns="http://www.w3.org/2000/svg">
<path d="M3.62821 18.1749H7.6908V19.4857C7.69145 19.7528 7.5866 20.0095 7.3987 20.1996C7.21057 20.3896 6.9551 20.4976 6.68764 20.5H4.64382C4.37439 20.5 4.11608 20.3931 3.92579 20.203C3.73527 20.0128 3.62824 19.7548 3.62824 19.4857L3.62821 18.1749ZM16.3002 19.4857C16.2995 19.7546 16.4057 20.0125 16.5958 20.2028C16.7856 20.3931 17.0437 20.5 17.3127 20.5H19.3535C19.6227 20.5 19.881 20.3931 20.0715 20.203C20.262 20.0127 20.3691 19.7548 20.3691 19.4857V18.1748H16.3065L16.3002 19.4857ZM22 12.8724V16.8299C22.0009 17.0215 21.925 17.2052 21.7894 17.3407C21.654 17.4761 21.4699 17.5518 21.2782 17.551H2.72175C2.53015 17.5518 2.34595 17.4761 2.21058 17.3407C2.07499 17.2052 1.99913 17.0215 2.00001 16.8299V12.6759C2.00001 12.2607 2.0872 11.8504 2.25614 11.4711L3.16864 9.4081L5.33434 3.93693C5.43527 3.67873 5.68181 3.50631 5.95951 3.5H17.9373C18.215 3.50631 18.4615 3.67873 18.5624 3.93693L20.7499 9.39567L21.7531 11.6679V11.6677C21.9185 12.0478 22.0027 12.4582 21.9999 12.8724L22 12.8724ZM5.37153 8.14715H18.5374C18.6195 8.14715 18.6965 8.10622 18.7423 8.03786C18.788 7.96972 18.7968 7.88308 18.7654 7.8071L17.6248 4.90136C17.5884 4.80535 17.4962 4.742 17.3936 4.74222H6.52463C6.42196 4.742 6.32997 4.80535 6.29335 4.90136L5.14022 7.8071C5.11057 7.88351 5.12038 7.96994 5.16638 8.03786C5.21259 8.10579 5.28932 8.14671 5.3715 8.14715H5.37153ZM7.76217 14.4109V14.4112C7.76304 13.9871 7.59519 13.5802 7.29546 13.28C6.99573 12.9795 6.58876 12.8106 6.16432 12.8099C5.73968 12.8095 5.3325 12.9773 5.03189 13.2769C4.73151 13.5765 4.56256 13.9829 4.56213 14.407C4.56191 14.8309 4.73041 15.2375 5.03036 15.5375C5.33052 15.8375 5.73773 16.006 6.16212 16.006C6.5861 16.006 6.99243 15.838 7.29237 15.5391C7.59254 15.2399 7.76147 14.8343 7.76213 14.4111L7.76217 14.4109ZM19.4341 14.4109V14.4112C19.435 13.9869 19.2669 13.58 18.967 13.2795C18.667 12.9793 18.2598 12.8104 17.8352 12.8099C17.4106 12.8097 17.0032 12.9782 16.7028 13.278C16.4024 13.578 16.2339 13.9849 16.2341 14.409C16.2346 14.8333 16.4035 15.2399 16.7043 15.5393C17.0049 15.8388 17.4125 16.0067 17.8374 16.006C18.261 16.006 18.6671 15.838 18.9666 15.5388C19.2661 15.2397 19.4341 14.8341 19.4341 14.4112L19.4341 14.4109Z" fill="#656E66"/>
</svg>
