<svg width="84" height="84" viewBox="0 0 84 84" fill="none" xmlns="http://www.w3.org/2000/svg">
<path d="M42 0.333374C19 0.333374 0.333374 19 0.333374 42C0.333374 65 19 83.6667 42 83.6667C65 83.6667 83.6667 65 83.6667 42C83.6667 19 65 0.333374 42 0.333374ZM30.7084 59.875L15.75 44.9167C14.125 43.2917 14.125 40.6667 15.75 39.0417C17.375 37.4167 20 37.4167 21.625 39.0417L33.6667 51.0417L62.3334 22.375C63.9584 20.75 66.5834 20.75 68.2084 22.375C69.8334 24 69.8334 26.625 68.2084 28.25L36.5834 59.875C35 61.5 32.3334 61.5 30.7084 59.875Z" fill="#30A193"/>
</svg>
