<svg width="24" height="24" viewBox="0 0 24 24" fill="none" xmlns="http://www.w3.org/2000/svg">
<path d="M12 9.09091C10.3927 9.09091 9.09091 10.3927 9.09091 12C9.09091 13.6073 10.3927 14.9091 12 14.9091C13.6073 14.9091 14.9091 13.6073 14.9091 12C14.9091 10.3927 13.6073 9.09091 12 9.09091ZM18.5018 11.2727C18.1673 8.24 15.76 5.83273 12.7273 5.49818V4H11.2727V5.49818C8.24 5.83273 5.83273 8.24 5.49818 11.2727H4V12.7273H5.49818C5.83273 15.76 8.24 18.1673 11.2727 18.5018V20H12.7273V18.5018C15.76 18.1673 18.1673 15.76 18.5018 12.7273H20V11.2727H18.5018ZM12 17.0909C9.18545 17.0909 6.90909 14.8145 6.90909 12C6.90909 9.18545 9.18545 6.90909 12 6.90909C14.8145 6.90909 17.0909 9.18545 17.0909 12C17.0909 14.8145 14.8145 17.0909 12 17.0909Z" fill="white"/>
</svg>
