<svg width="64" height="60" viewBox="0 0 64 60" fill="none" xmlns="http://www.w3.org/2000/svg">
<path d="M38.75 30.5C38.75 35.75 32 40.25 32 40.25C32 40.25 25.25 35.75 25.25 30.5C25.25 28.7098 25.9612 26.9929 27.227 25.727C28.4929 24.4612 30.2098 23.75 32 23.75C33.7902 23.75 35.5071 24.4612 36.773 25.727C38.0388 26.9929 38.75 28.7098 38.75 30.5Z" stroke="#656E66" stroke-linecap="round" stroke-linejoin="round"/>
<path d="M32 32.75C33.2426 32.75 34.25 31.7426 34.25 30.5C34.25 29.2574 33.2426 28.25 32 28.25C30.7574 28.25 29.75 29.2574 29.75 30.5C29.75 31.7426 30.7574 32.75 32 32.75Z" stroke="#656E66" stroke-linecap="round" stroke-linejoin="round"/>
<rect x="0.5" y="0.5" width="63" height="59" rx="4.5" stroke="#7B61FF" stroke-dasharray="10 5"/>
</svg>
