<svg width="24" height="24" viewBox="0 0 24 24" fill="none" xmlns="http://www.w3.org/2000/svg">
<path d="M3.99183 10.3935C3.99183 15.4226 2.75276 16.9592 1.99726 17.4063C1.36253 17.7974 1 18.468 1 19.1385C1 20.3119 1.99726 21.206 3.23633 21.206H8.37366C8.73624 22.7987 10.2171 24 12 24C13.7829 24 15.2638 22.7987 15.6263 21.206H20.7637C22.0027 21.206 23 20.284 23 19.1385C23 18.44 22.6374 17.7974 22.0027 17.4063C21.2472 16.9313 20.0082 15.3946 20.0082 10.3935C20.0082 5.69971 16.9257 3.82766 14.6592 3.04536C14.6893 2.87775 14.7197 2.68208 14.7197 2.51446C14.7197 1.11748 13.511 0 12 0C10.489 0 9.28032 1.11748 9.28032 2.51446C9.28032 2.68206 9.31046 2.87773 9.34082 3.04536C7.07411 3.79978 3.99184 5.69976 3.99184 10.3935H3.99183ZM12.0001 22.9104C10.882 22.9104 9.91488 22.2119 9.58246 21.2339H14.4178C14.0853 22.2119 13.1182 22.9104 12.0001 22.9104ZM21.7914 19.1663C21.7914 19.6972 21.3078 20.1443 20.7336 20.1443H3.26644C2.69221 20.1443 2.20864 19.6972 2.20864 19.1663C2.20864 18.8868 2.32942 18.6354 2.57121 18.4399H21.4889C21.6704 18.6356 21.7914 18.887 21.7914 19.1663H21.7914ZM12.0001 1.11738C12.8463 1.11738 13.5111 1.73205 13.5111 2.51436C13.5111 2.59816 13.5111 2.65409 13.481 2.7379C12.2419 2.48649 11.0937 2.62622 10.4891 2.7379C10.4891 2.65409 10.459 2.59816 10.459 2.51436C10.4891 1.73205 11.154 1.11738 12.0002 1.11738H12.0001ZM10.3985 3.91133H10.4286C10.4286 3.91133 11.0934 3.71566 12.0303 3.71566C12.5138 3.71566 13.0275 3.7716 13.6017 3.9392H13.6319C15.989 4.55387 18.8297 6.17442 18.8297 10.4212C18.8297 13.6622 19.3133 15.9811 20.3105 17.3502H3.7198C4.68695 15.9532 5.20063 13.6342 5.20063 10.4212C5.20063 6.14643 8.01098 4.52593 10.3985 3.91126L10.3985 3.91133Z" fill="white"/>
</svg>
