<svg width="24" height="24" viewBox="0 0 24 24" fill="none" xmlns="http://www.w3.org/2000/svg">
<path d="M16.9999 9.99052C16.9999 10.2206 16.7805 10.41 16.5142 10.41H14.4614C14.0853 11.506 12.8943 12.318 11.4997 12.318H9.11774L14.6337 16.3234C14.9001 16.5128 14.8217 16.7835 14.4613 16.9188C14.3203 16.9729 14.148 17 13.9912 17C13.7562 17 13.5054 16.9459 13.3487 16.8241L7.15889 12.3315L7.14326 12.318C7.01788 12.2232 6.97088 12.1015 7.01788 11.9932C7.00225 11.9661 7.00225 11.9255 7.00225 11.885C7.00225 11.6549 7.22163 11.4655 7.488 11.4655H11.4996C12.3458 11.4655 13.0667 11.0324 13.4114 10.41H7.488C7.22162 10.41 7.00225 10.2206 7.00225 9.99055C7.00225 9.76052 7.22163 9.57109 7.488 9.57109H13.5994C13.5526 8.61028 12.6279 7.83892 11.4996 7.83892H7.48803C7.22165 7.83892 7.00228 7.64948 7.00228 7.41946C7.00228 7.18944 7.22165 7 7.48803 7H16.4985C16.7649 7 16.9842 7.18944 16.9842 7.41946C16.9842 7.64948 16.7649 7.83892 16.4985 7.83892H13.7562C14.2419 8.29898 14.5553 8.8944 14.5867 9.57099H16.5141C16.7806 9.57109 17 9.76053 17 9.99055L16.9999 9.99052Z" fill="#373C38"/>
</svg>
