<svg width="40" height="40" viewBox="0 0 40 40" fill="none" xmlns="http://www.w3.org/2000/svg">
<circle cx="20" cy="20" r="19" fill="#30A193"/>
<path d="M11.6282 26.1749H15.6908V27.4857C15.6914 27.7528 15.5866 28.0095 15.3987 28.1996C15.2106 28.3896 14.9551 28.4976 14.6876 28.5H12.6438C12.3744 28.5 12.1161 28.3931 11.9258 28.203C11.7353 28.0128 11.6282 27.7548 11.6282 27.4857L11.6282 26.1749ZM24.3002 27.4857C24.2995 27.7546 24.4057 28.0125 24.5958 28.2028C24.7856 28.3931 25.0437 28.5 25.3127 28.5H27.3535C27.6227 28.5 27.881 28.3931 28.0715 28.203C28.262 28.0127 28.3691 27.7548 28.3691 27.4857V26.1748H24.3065L24.3002 27.4857ZM30 20.8724V24.8299C30.0009 25.0215 29.925 25.2052 29.7894 25.3407C29.654 25.4761 29.4699 25.5518 29.2782 25.551H10.7218C10.5301 25.5518 10.3459 25.4761 10.2106 25.3407C10.075 25.2052 9.99913 25.0215 10 24.8299V20.6759C10 20.2607 10.0872 19.8504 10.2561 19.4711L11.1686 17.4081L13.3343 11.9369C13.4353 11.6787 13.6818 11.5063 13.9595 11.5H25.9373C26.215 11.5063 26.4615 11.6787 26.5624 11.9369L28.7499 17.3957L29.7531 19.6679V19.6677C29.9185 20.0478 30.0027 20.4582 29.9999 20.8724L30 20.8724ZM13.3715 16.1471H26.5374C26.6195 16.1471 26.6965 16.1062 26.7423 16.0379C26.788 15.9697 26.7968 15.8831 26.7654 15.8071L25.6248 12.9014C25.5884 12.8053 25.4962 12.742 25.3936 12.7422H14.5246C14.422 12.742 14.33 12.8053 14.2934 12.9014L13.1402 15.8071C13.1106 15.8835 13.1204 15.9699 13.1664 16.0379C13.2126 16.1058 13.2893 16.1467 13.3715 16.1471H13.3715ZM15.7622 22.4109V22.4112C15.763 21.9871 15.5952 21.5802 15.2955 21.28C14.9957 20.9795 14.5888 20.8106 14.1643 20.8099C13.7397 20.8095 13.3325 20.9773 13.0319 21.2769C12.7315 21.5765 12.5626 21.9829 12.5621 22.407C12.5619 22.8309 12.7304 23.2375 13.0304 23.5375C13.3305 23.8375 13.7377 24.006 14.1621 24.006C14.5861 24.006 14.9924 23.838 15.2924 23.5391C15.5925 23.2399 15.7615 22.8343 15.7621 22.4111L15.7622 22.4109ZM27.4341 22.4109V22.4112C27.435 21.9869 27.2669 21.58 26.967 21.2795C26.667 20.9793 26.2598 20.8104 25.8352 20.8099C25.4106 20.8097 25.0032 20.9782 24.7028 21.278C24.4024 21.578 24.2339 21.9849 24.2341 22.409C24.2346 22.8333 24.4035 23.2399 24.7043 23.5393C25.0049 23.8388 25.4125 24.0067 25.8374 24.006C26.261 24.006 26.6671 23.838 26.9666 23.5388C27.2661 23.2397 27.4341 22.8341 27.4341 22.4112L27.4341 22.4109Z" fill="white"/>
</svg>
