<svg width="40" height="40" viewBox="0 0 40 40" fill="none" xmlns="http://www.w3.org/2000/svg">
<circle cx="19.5" cy="19.5" r="19.5" fill="#30A193"/>
<path d="M29 14.6339V18.6727C28.9992 18.8235 28.9421 18.9678 28.8413 19.0732C28.7402 19.1788 28.6041 19.2368 28.4628 19.2343H27.2141V14.0692H28.4628C28.6045 14.0669 28.7412 14.1253 28.8423 14.2313C28.9431 14.3375 29 14.4824 29 14.6339L29 14.6339ZM11 14.6339V18.6727C11 18.9829 11.2354 19.2343 11.526 19.2343H12.8367L12.8365 14.0692H11.526C11.235 14.0708 11 14.3233 11 14.6339H11ZM14.8024 28.0991C14.8024 28.3381 14.8913 28.5672 15.0496 28.7361C15.2078 28.9051 15.4224 29 15.6462 29H17.1341C17.3578 29 17.5724 28.9051 17.7307 28.7361C17.8888 28.5672 17.9777 28.3381 17.9777 28.0991V26.8709H14.8024L14.8024 28.0991ZM22.6548 28.0991C22.6548 28.3381 22.7437 28.5672 22.902 28.7361C23.0602 28.9051 23.2748 29 23.4986 29H24.9751C25.199 29 25.4136 28.9051 25.5717 28.7361C25.73 28.5672 25.8189 28.3381 25.8189 28.0991V26.8709H22.6548L22.6548 28.0991ZM26.6515 11.8829V21.3032H13.3986V11.8829C13.3986 11.6488 13.4857 11.4242 13.6409 11.2585C13.7959 11.093 14.0062 11 14.2255 11H25.8246C26.0439 11 26.2542 11.093 26.4092 11.2585C26.5644 11.4242 26.6515 11.6487 26.6515 11.8829H26.6515ZM24.9639 13.3484C24.9623 13.0472 24.7342 12.8034 24.4521 12.8019H15.5982C15.3161 12.8034 15.088 13.0472 15.0864 13.3484V18.9581C15.088 19.2589 15.3167 19.5017 15.5982 19.5017H24.4521C24.7336 19.5017 24.9624 19.2589 24.9639 18.9581V13.3484ZM13.399 21.9037H26.6519V25.3962C26.6511 25.6298 26.5636 25.8537 26.4086 26.0185C26.2537 26.1834 26.0437 26.276 25.825 26.276H14.2259C14.0072 26.276 13.7973 26.1834 13.6423 26.0185C13.4873 25.8537 13.3998 25.6297 13.399 25.3962L13.399 21.9037ZM22.4864 24.0868C22.4864 24.3656 22.5902 24.6329 22.7748 24.83C22.9594 25.0271 23.2097 25.1379 23.4708 25.1379C23.7318 25.1379 23.9823 25.0271 24.1669 24.83C24.3515 24.6329 24.4551 24.3656 24.4551 24.0868C24.4551 23.8082 24.3515 23.5407 24.1669 23.3436C23.9823 23.1465 23.7317 23.0359 23.4708 23.0359C23.2097 23.0359 22.9594 23.1465 22.7748 23.3436C22.5902 23.5407 22.4864 23.8082 22.4864 24.0868ZM15.5958 24.0868C15.5958 24.3656 15.6994 24.6329 15.884 24.83C16.0686 25.0271 16.3191 25.1379 16.58 25.1379C16.8411 25.1379 17.0915 25.0271 17.2761 24.83C17.4607 24.6329 17.5644 24.3656 17.5644 24.0868C17.5644 23.8082 17.4607 23.5407 17.2761 23.3436C17.0914 23.1465 16.8411 23.0359 16.58 23.0359C16.3191 23.0359 16.0685 23.1465 15.884 23.3436C15.6994 23.5407 15.5958 23.8082 15.5958 24.0868Z" fill="white"/>
</svg>
