<svg width="24" height="24" viewBox="0 0 24 24" fill="none" xmlns="http://www.w3.org/2000/svg">
<path d="M12.8158 15.6524H10.9116V10.9997C10.9116 10.3681 10.3474 9.86298 9.64223 9.86298C8.93693 9.86298 8.37285 10.3683 8.37285 10.9997V15.6524H6.46869C5.71634 15.6524 5.24621 16.3893 5.64581 16.9787L8.79592 21.5892C9.17209 22.1366 10.0653 22.1366 10.4415 21.5892L13.5916 16.9787C14.0383 16.3891 13.5681 15.6524 12.8158 15.6524H12.8158Z" fill="#373C38"/>
<path d="M20.2557 7.02101L17.0821 2.4105C16.7059 1.86317 15.8127 1.86317 15.4365 2.4105L12.2863 7.02101C11.8866 7.58947 12.3568 8.34736 13.1091 8.34736H15.0133V13C15.0133 13.6316 15.5775 14.1367 16.2827 14.1367C16.988 14.1367 17.5521 13.6314 17.5521 13L17.5522 8.32631H19.4564C20.1851 8.32631 20.6318 7.58954 20.2556 7.02109L20.2557 7.02101Z" fill="#373C38"/>
</svg>
