<svg width="24" height="24" viewBox="0 0 24 24" fill="none" xmlns="http://www.w3.org/2000/svg">
<path d="M17.5658 18.2719C17.6874 18.2717 17.8088 18.2615 17.9285 18.2411L19.5 21H17.4456L16.9428 20.1197H7.05719L6.55437 21H4.5L6.07146 18.2409V18.2411C6.19124 18.2613 6.31261 18.2717 6.43418 18.2719H8.10845L7.71424 18.9442H16.2856L15.8914 18.2719L17.5658 18.2719ZM19.1743 12.6916L4.826 12.6918V4.58339C4.826 4.16336 4.9956 3.76059 5.29713 3.46378C5.59887 3.16675 6.00805 3 6.43452 3H17.5773C18.0038 3 18.4129 3.16675 18.7147 3.46378C19.0164 3.7606 19.1858 4.16338 19.1858 4.58339L19.1743 12.6916ZM13.68 4.68715C13.68 4.60338 13.6108 4.53531 13.5255 4.53531H10.4743C10.389 4.53531 10.3198 4.60339 10.3198 4.68715V5.10914C10.3198 5.19291 10.389 5.26098 10.4743 5.26098H13.5255C13.6108 5.26098 13.68 5.1929 13.68 5.10914V4.68715ZM19.1743 13.2541V16.1284C19.1743 16.5482 19.0047 16.9506 18.703 17.247C18.4012 17.5436 17.9921 17.7098 17.5658 17.709H6.42306C5.99676 17.7098 5.58761 17.5436 5.28587 17.247C4.98414 16.9505 4.81454 16.5482 4.81454 16.1284V13.2541H19.1743ZM9.17442 15.4816C9.17442 15.1965 9.05923 14.9231 8.85435 14.7216C8.64948 14.5201 8.37166 14.4069 8.08207 14.4073C7.79229 14.4075 7.51467 14.5211 7.31019 14.723C7.10571 14.9248 6.99091 15.1983 6.99151 15.4836C6.99211 15.7686 7.1077 16.0417 7.31278 16.243C7.51805 16.4441 7.79607 16.5567 8.08583 16.5559C8.37581 16.5567 8.65404 16.4439 8.85929 16.2422C9.06457 16.0407 9.17996 15.7671 9.17996 15.4816L9.17442 15.4816ZM16.9942 15.4816H16.994C16.994 15.1965 16.879 14.9231 16.6742 14.7216C16.4693 14.5201 16.1913 14.4069 15.9017 14.4073C15.6121 14.4075 15.3345 14.5211 15.13 14.723C14.9253 14.9248 14.8107 15.1983 14.8113 15.4836C14.8117 15.7686 14.9273 16.0417 15.1326 16.243C15.3379 16.4441 15.6159 16.5567 15.9054 16.5559C16.1954 16.5567 16.4739 16.4439 16.6791 16.2422C16.8844 16.0407 16.9998 15.7671 16.9998 15.4816L16.9942 15.4816Z" fill="#656E66"/>
</svg>
