<svg width="30" height="32" viewBox="0 0 30 32" fill="none" xmlns="http://www.w3.org/2000/svg">
<path d="M9.00002 1.01816V5.81832H4.04994L9.00002 1.01816ZM10.4999 0V6.54523C10.4999 6.98152 10.2001 7.27272 9.74966 7.27272H3V30.5456C3 31.3456 3.67487 32 4.49985 32H25.4996C26.3246 32 26.9995 31.3456 26.9995 30.5456L27 1.4545C27 0.654471 26.3251 7.72852e-05 25.5002 7.72852e-05L10.4999 0ZM20.2499 17.4546H15.7497V21.8186C15.7497 22.2549 15.4499 22.5461 14.9995 22.5461C14.5496 22.5461 14.2493 22.2554 14.2493 21.8186V17.4546H9.74904C9.29913 17.4546 8.99884 17.164 8.99884 16.7272C8.99884 16.2909 9.2986 15.9997 9.74904 15.9997H14.2493V11.6358C14.2493 11.1995 14.549 10.9083 14.9995 10.9083C15.4494 10.9083 15.7497 11.199 15.7497 11.6358V15.9997H20.2499C20.6998 15.9997 21.0001 16.2904 21.0001 16.7272C21.0001 17.164 20.6998 17.4546 20.2499 17.4546Z" fill="black"/>
</svg>
