<svg width="24" height="24" viewBox="0 0 24 24" fill="none" xmlns="http://www.w3.org/2000/svg">
<path d="M18.2223 7.00001H14.6668V6.00006C14.6662 5.46971 14.4788 4.96146 14.1455 4.58646C13.8121 4.21146 13.3604 4.00069 12.8889 4H11.1112C10.6398 4.00067 10.188 4.21144 9.85468 4.58646C9.52135 4.96148 9.33399 5.46971 9.33338 6.00006V7.00001H5.77785C5.30641 7.00068 4.85464 7.21145 4.5213 7.58647C4.18796 7.96149 4.00061 8.46972 4 9.00007V18.0001C4.0006 18.5303 4.18795 19.0387 4.5213 19.4135C4.85464 19.7885 5.30641 19.9995 5.77785 20H18.2222C18.6936 19.9995 19.1454 19.7886 19.4787 19.4135C19.812 19.0387 19.9994 18.5303 20 18.0001V9.00007C19.9994 8.46972 19.8121 7.96147 19.4787 7.58647C19.1453 7.21147 18.6936 7.0007 18.2222 7.00001H18.2223ZM10.2222 6.00006C10.2225 5.73488 10.3163 5.48076 10.4829 5.29326C10.6496 5.10576 10.8755 5.00029 11.1112 4.99995H12.8891H12.8889C13.1246 5.00029 13.3505 5.10576 13.5172 5.29326C13.6839 5.48076 13.7776 5.73491 13.7779 6.00006V7.00001H10.2222L10.2222 6.00006ZM19.1115 18.0001C19.1112 18.2651 19.0174 18.5194 18.8507 18.7069C18.6841 18.8944 18.4582 18.9997 18.2225 19H5.77816C5.54244 18.9997 5.31655 18.8944 5.14989 18.7069C4.98322 18.5194 4.88947 18.2651 4.88917 18.0001V9.00007C4.88946 8.7349 4.98322 8.48077 5.14989 8.29327C5.31655 8.10577 5.54246 8.0003 5.77816 7.99997H18.2225C18.4582 8.0003 18.6841 8.10577 18.8507 8.29327C19.0174 8.48077 19.1112 8.73492 19.1115 9.00007V18.0001Z" fill="#656E66"/>
</svg>
